<?xml version="1.0" standalone="no"?>
<!DOCTYPE svg PUBLIC "-//W3C//DTD SVG 1.1//EN" "http://www.w3.org/Graphics/SVG/1.1/DTD/svg11.dtd" >
<svg xmlns="http://www.w3.org/2000/svg">
<metadata></metadata>
<defs>
<font id="cf_disappointedregular" horiz-adv-x="378" >
<font-face units-per-em="2048" ascent="1589" descent="-459" />
<missing-glyph horiz-adv-x="389" />
<glyph horiz-adv-x="0" />
<glyph unicode="&#xd;" horiz-adv-x="0" />
<glyph horiz-adv-x="0" />
<glyph horiz-adv-x="0" />
<glyph unicode=" "  horiz-adv-x="389" />
<glyph unicode="&#x09;" horiz-adv-x="389" />
<glyph unicode="&#xa0;" horiz-adv-x="389" />
<glyph unicode="!" horiz-adv-x="260" d="M16 150q0 12 3.5 28.5t12.5 30.5t25.5 24.5t40.5 10.5q31 0 53.5 -19.5t37 -44t20.5 -50.5t6 -38q0 -41 -26.5 -72.5t-69.5 -31.5q-29 0 -48.5 20.5t-31.5 47t-17.5 53t-5.5 41.5zM57 376.5q-2 24.5 1 48.5t3 34l-4 6q0 10 5.5 11t5.5 5q-6 18 -10.5 43t-0.5 45 q4 18 8.5 42t8.5 46.5t6 40t2 21.5v229q0 4 1 20.5t3 39t2 47v47.5q-2 41 2 90t0 104q-2 18 -7 44t-1 59q2 16 16.5 24.5t32.5 8.5q12 0 24.5 -4.5t18.5 -49.5l2 -305l-4 -8q4 -113 2 -192.5t-6 -165.5q-2 -23 -6 -60t-9.5 -71.5t-9.5 -62.5t-4 -34q0 -4 2 -19.5t5.5 -37 t6.5 -44t5 -40.5q-10 -10 -22.5 -16.5t-22.5 -6.5q-29 0 -41.5 18.5t-14.5 43z" />
<glyph unicode="#" horiz-adv-x="751" d="M59 903q0 23 16.5 34t36 16t38 5t24.5 3q14 6 21.5 16t9.5 24.5t2 27.5t2 26q6 51 -2 90t-8 78q0 8 2 27.5t7 40t15 34.5t27 14q25 0 32 -24.5t7 -54t-4 -55t-4 -27.5v-185q0 -10 9 -15t19 -9q12 -4 29 -4q53 0 69.5 29.5t16.5 70.5v291q0 10 16.5 29.5t36.5 19.5 q16 0 25.5 -11.5t13.5 -25.5t4 -27.5v-15.5q0 -18 -3 -29.5t-7 -31t-7 -53t-3 -97.5q0 -16 -2 -37.5t1 -42t11 -35t31 -14.5q10 0 29.5 3t29.5 3q14 0 35.5 -3t38.5 -23v-39l-17 -17q-27 -10 -58.5 -10t-58 -4t-44 -19.5t-17.5 -56.5v-160q0 -8 -5 -24.5t-5 -26.5 q0 -33 13.5 -43t39.5 -10q4 0 15.5 2t23.5 3t23.5 3t17.5 2q29 0 40 -12t11 -29q0 -27 -26.5 -35t-60.5 -10t-67.5 -4t-45.5 -16l-2 -2q-2 -2 -3.5 -4t-3.5 -4q-2 -16 -6 -41t-7 -48.5t-5 -42t-2 -24.5v-201q0 -18 -17.5 -35.5t-33.5 -17.5q-35 0 -39 22.5t-2 49.5l41 309 q8 41 -10.5 47t-34.5 6t-39 -6t-39 -29q-18 -29 -16 -75t-3 -82q-8 -61 -17 -126t-24 -130q-2 -8 -14 -15.5t-22 -7.5q-16 0 -32 16.5t-11 38.5l47 328q2 27 -12.5 35t-32 12t-32.5 11.5t-15 29.5q0 25 13 31t30.5 9t36 9t30.5 31q2 6 2 20.5v33t-1 37t1 32.5t6 34.5t7.5 39 t5.5 34t2 19.5q0 10 -3 24.5t-6 26.5q-16 12 -37.5 11t-43 -1t-36 7.5t-14.5 31.5zM254 563q10 -14 22.5 -16t28.5 -2q20 0 29 2q12 2 26.5 8t18.5 16q12 27 16 61t6 72.5t2.5 79.5t4.5 82q-10 12 -34 17.5t-36 5.5q-10 0 -31.5 -6t-25.5 -17q-8 -23 -13.5 -52.5t-8.5 -56 t-4 -47t-1 -24.5v-123z" />
<glyph unicode="$" horiz-adv-x="802" d="M68 338q0 8 4 43t8 61q4 12 7 32t13 32q8 12 31 12q27 0 33 -16.5t6 -30.5q0 -4 -4 -19.5t-9 -33t-9.5 -32.5t-4.5 -19q0 -27 17.5 -77t45 -99.5t60.5 -85t66 -35.5q8 0 16 7t8 15q2 33 5.5 78t6.5 86t5 71.5t2 34.5v138q0 4 2 17t3 28.5t3 29t2 17.5q0 29 -10 45 t-28.5 28.5t-45.5 26t-59 37.5q-8 6 -18.5 24.5t-18.5 30.5q-23 29 -40.5 57.5t-23.5 61.5q-6 25 -9 55.5t-5 58t-3 49t-1 26.5v46t8 60q4 18 23.5 47t33.5 58q12 25 42 60.5t59 45.5q8 2 19 8t22 10q12 6 24.5 15.5t18.5 21.5q8 14 7 35t-4 43.5t-2 47t13 46.5 q4 8 15.5 12.5t21.5 4.5q8 0 21.5 -3t19.5 -14q8 -16 6 -38.5t-5 -47t-3 -46t10 -34.5q16 -18 44 -27t50 -24q33 -20 67 -58t40 -69q6 -27 15 -60.5t17.5 -65t14.5 -55.5t6 -28q0 -25 -17.5 -42t-33.5 -17q-14 0 -29.5 9t-19.5 22q-14 43 -20.5 88t-14.5 90q0 8 -10.5 26.5 t-25.5 37t-32.5 32.5t-31.5 14q-4 0 -14.5 -3t-14.5 -19t3 -41t3 -47q-4 -37 -7 -57.5t-6 -42t-4 -51t-1 -85.5v-30.5t1 -62.5t3 -74.5t8 -67.5q2 -12 13 -22.5t24.5 -18.5t29 -16.5t27.5 -18.5q20 -16 48 -39.5t48 -52.5q29 -39 33 -68.5t10 -54.5l6 -180q0 -18 -2 -32.5 t-18 -63.5q-4 -16 -3 -37t-9 -37q-16 -29 -49 -65t-68 -64q-27 -18 -56.5 -26.5t-50.5 -33.5q-4 -6 -5 -13t-3 -15q-2 -10 0 -21.5t2 -21.5v-101h-90l4 4q2 2 2 7q-2 4 -5 11t-3 15v142q0 8 -12 17t-26.5 17.5t-27 13.5t-14.5 5q-18 10 -43.5 32.5t-48.5 45.5 q-16 16 -34.5 52t-35 76t-27.5 78.5t-11 61.5zM221 1075q0 -41 6 -90t21 -78l9 -19q9 -18 21.5 -39.5t26.5 -38.5t27 -17h26q2 6 7.5 45t10.5 84t9 85t4 48v233q0 2 -1 10.5t-4 18.5t-8 18t-14 8q-33 0 -58 -30.5t-43.5 -73.5t-29 -89t-10.5 -75zM430 184q0 -4 2 -22.5 t6 -38t13.5 -34.5t23.5 -15q16 0 35.5 17.5t37 39t29 40.5t11.5 24q2 23 5 50t4 54t2 45.5t1 22.5q0 20 1 45.5t-3 52.5t-17.5 54.5t-39.5 53.5q-12 12 -33 24.5t-29 12.5h-26v-272q0 -4 -4.5 -27.5t-8.5 -49t-7 -49.5t-3 -28z" />
<glyph unicode="%" horiz-adv-x="872" d="M71 1180.5q-1 64.5 12 131t49 116t108 49.5q61 0 99 -44t57.5 -101.5t26.5 -112.5t7 -78q0 -4 -3 -21.5t-6 -41t-6 -48t-3 -43.5q0 -104 -55.5 -163.5t-123.5 -59.5q-20 0 -57 18.5t-61 55.5q-31 47 -37 116.5t-6 130.5q0 31 -1 95.5zM143 -6q0 4 4.5 21.5t11.5 39t14 44 t13 40.5q57 147 111.5 293t93.5 305q4 23 16.5 48.5t22.5 54.5q25 68 43.5 122t34.5 103t28.5 97t24.5 102q8 43 18.5 98t26.5 98q8 16 24.5 21.5t28.5 5.5t25 -2.5t29 -20.5q2 -16 -3 -35.5t-14.5 -38t-18.5 -37t-13 -34.5q-23 -72 -43.5 -148.5t-42.5 -152.5 q-10 -31 -32 -81t-36 -93q-20 -53 -32.5 -110.5t-28.5 -115.5q-6 -23 -20.5 -55.5t-27.5 -62.5q-14 -37 -21 -80t-24 -84q-10 -31 -30.5 -70t-30.5 -78q-16 -53 -31.5 -110.5t-23.5 -110.5q-4 -23 -17.5 -28t-27.5 -5q-31 0 -41.5 21.5t-10.5 38.5zM154 1077q0 -6 2 -38.5 t10 -68.5t26.5 -64.5t51.5 -28.5q31 0 49 29.5t28.5 67.5t13.5 75t3 53q0 12 -1 54t-10.5 88t-28.5 83t-58 37q-10 0 -27.5 -4t-19.5 -25q-6 -70 -13.5 -100.5t-12.5 -49t-9 -39t-4 -69.5zM436 463q0 37 12.5 81t37 81t60.5 62.5t85 25.5q20 0 42.5 -17.5t42 -42t34 -51.5 t18.5 -45q4 -23 8 -53.5t10 -52.5q2 -12 5.5 -27.5t6.5 -30t5 -27t2 -16.5q0 -8 -3 -37.5t-5 -52.5q-4 -49 -15.5 -99t-34 -91t-61.5 -68t-96 -27q-55 0 -83 35t-39 80t-14 90t-12 64zM522 381q0 -23 4 -64t11.5 -84t14.5 -79.5t13 -47.5q8 -14 20.5 -21t22.5 -7 q33 0 55.5 40t36 90t18.5 96t5 58q0 4 -4 44t-16.5 85.5t-34 82t-54.5 36.5q-12 0 -19 -11t-13.5 -26.5t-10.5 -32t-8 -28.5q-8 -16 -18 -34.5t-15 -33.5q-4 -12 -6 -33.5t-2 -29.5z" />
<glyph unicode="&#x26;" horiz-adv-x="692" d="M57 342q0 76 23.5 160t53.5 156.5t53.5 124t23.5 61.5t-12.5 32.5t-18.5 41.5q-10 33 -14 77.5t-14 85.5q-4 16 -13.5 39t-13.5 43q-4 14 -6 34t-4 38t-2 32.5v18.5q0 84 47 140.5t143 56.5q61 0 96 -32t53.5 -77t23.5 -93t5 -81q0 -92 -23.5 -154.5t-53 -108.5t-53 -79 t-23.5 -65q0 -4 3 -17.5t8 -30t11 -33t10 -28.5q8 -25 20.5 -55.5t22.5 -57.5q10 -33 22.5 -71.5t49.5 -75.5q14 8 19.5 25.5t11.5 34t16 29.5t33 13q33 0 41 -22.5t8 -38.5q0 -4 -8 -41t-17.5 -81t-17.5 -81t-8 -41q0 -25 10 -58.5t23.5 -64t24 -54.5t10.5 -28 q0 -23 -16.5 -33t-31.5 -10q-10 0 -15 3.5t-9 3.5q-14 20 -27.5 46.5t-32.5 53.5q-45 -27 -70.5 -47.5t-46 -33.5t-42 -19.5t-56.5 -6.5q-37 0 -69.5 8.5t-58 31t-44 61.5t-26.5 100q-2 18 -5 44t-6.5 52.5t-5.5 46t-2 25.5zM139 285q0 -18 6.5 -53t21.5 -70t39.5 -60.5 t61.5 -25.5q27 0 56.5 14t54 37t41 50t16.5 54q0 23 -16.5 72t-38 100.5t-39.5 93.5t-23 54q-10 27 -20 53.5t-14 46.5q-4 14 -15.5 22.5t-15.5 10.5q-12 -16 -26.5 -37.5t-24.5 -40.5q-10 -18 -19.5 -39.5t-13.5 -31.5q-6 -31 -11 -72t-10.5 -79t-7.5 -66.5t-2 -32.5z M205 1268q0 -29 5 -67t13 -76t16.5 -71.5t12.5 -54.5q4 -12 13 -27.5t20 -25.5q25 18 43 51t32.5 73t21.5 82t7 75q0 12 -1 37.5t-10 51t-28.5 45t-56.5 19.5q-51 0 -69.5 -34.5t-18.5 -77.5z" />
<glyph unicode="'" horiz-adv-x="303" d="M45 1094q0 20 12.5 30.5t27.5 20.5t28.5 23.5t17.5 39.5q4 41 -1 84t-1 84q0 12 8 19.5t17.5 12.5t18.5 6t11 1q18 0 27.5 -9t12.5 -22.5t2 -27t-1 -21.5v-19.5t-1 -35.5t-3 -43t-4 -39q-2 -23 -23.5 -63.5t-41.5 -65.5q-16 -18 -28.5 -20t-23.5 -2q-55 0 -55 47z" />
<glyph unicode="(" horiz-adv-x="411" d="M76 571q0 4 3 33t7 61.5t7 61.5t3 33v188q0 4 2 32t5 63.5t7.5 74.5t8.5 68q4 20 16 64t23 83q2 10 4 26.5t6 31.5q8 72 20 129q10 47 30 88t50 41q29 0 36 -16.5t7 -33.5q0 -23 -10 -38t-22 -50q-6 -12 -11.5 -37.5t-11.5 -54t-12 -57.5t-11 -49q-16 -68 -24 -114 t-12 -82l-7.5 -67.5t-7.5 -74.5q-2 -16 -5 -44t-3 -38v-170q0 -4 -3 -20.5t-6 -34t-5 -34t-2 -20.5q0 -10 6 -33.5t8 -39.5t1 -45t3 -54q2 -14 15.5 -38.5t17.5 -47.5t1 -49t1 -49t12 -57.5t19.5 -76.5t22.5 -86t24 -81q6 -23 29.5 -52.5t23.5 -64.5q0 -29 -15.5 -40 t-31.5 -11q-10 0 -25.5 4t-27.5 29q-16 33 -26.5 83t-22.5 97q-10 31 -21.5 64.5t-21.5 72.5q-6 31 -5.5 59.5t-7.5 73.5q-4 20 -16 49t-17 54q-4 23 -9 54.5t-9 61t-7 52t-3 28.5z" />
<glyph unicode=")" horiz-adv-x="454" d="M86 1638q0 41 45 41q18 0 33.5 -23.5t27 -52t18.5 -53t7 -26.5q16 -41 37.5 -99.5t36.5 -111.5q8 -39 13 -73t11.5 -67.5t16.5 -70.5t28 -80q6 -14 11.5 -46t9.5 -69t6 -73.5t2 -61.5q0 -72 -8 -150.5t-18.5 -152.5t-20.5 -136.5t-16 -101.5t-19.5 -85t-23.5 -93 q-6 -35 -14.5 -81t-14.5 -89q-6 -39 -26.5 -58.5t-41.5 -19.5q-43 0 -51 21.5t-8 44.5q0 10 1 22.5t7 28.5q4 10 13.5 21.5t13.5 23.5q10 35 23.5 70t23.5 69q10 37 15 84.5t14 88.5q6 31 15 73.5t19.5 81.5t17.5 67.5t7 33.5v178q0 10 5 45t5 45q0 4 -7 43t-17.5 91 t-22.5 108.5t-20 93.5q-18 72 -39 156.5t-43 164.5q-6 18 -17.5 47t-24 56.5t-21.5 49t-9 25.5z" />
<glyph unicode="*" horiz-adv-x="495" d="M66 1225q0 23 17 36t36 13q10 0 37.5 -10.5t38.5 -10.5q27 0 29.5 22.5t1.5 50.5t3 51.5t31 23.5q33 0 39 -23.5t5 -51.5t1 -50.5t29 -22.5q10 0 32.5 7.5t30.5 7.5q18 0 24.5 -5.5t6.5 -21.5q0 -14 -16.5 -32.5t-37 -40t-36.5 -46t-16 -53.5q0 -4 7 -22.5t15 -39 t15.5 -39t7.5 -22.5q0 -23 -12.5 -42t-32.5 -19q-10 0 -33 15t-33 15q-8 0 -15.5 -8t-15.5 -17t-19 -17.5t-26 -8.5q-23 0 -36 12.5t-13 30.5q0 12 10.5 26.5t23.5 35t23.5 48t10.5 66.5q0 49 -20.5 65.5t-46.5 23t-46 14.5t-20 39z" />
<glyph unicode="," horiz-adv-x="272" d="M4 -197q0 20 12.5 30.5t27.5 21t28.5 25t17.5 38.5q4 41 -1 84t-1 84q0 12 8 19.5t17.5 12.5t18.5 6t11 1q18 0 27.5 -9.5t12.5 -22.5t2 -26.5t-1 -21.5v-19.5t-1 -36t-3 -43t-4 -38.5q-2 -23 -23.5 -64t-41.5 -65q-16 -18 -28.5 -20.5t-23.5 -2.5q-55 0 -55 47z" />
<glyph unicode="-" d="M66 729q0 23 20 34t47 15t53.5 4h38.5t28.5 1t31 -2t23.5 -12.5t9 -29.5t-24.5 -30.5t-56 -15.5t-64.5 -6t-47 -1q-23 0 -41 6t-18 37z" />
<glyph unicode="." horiz-adv-x="325" d="M70 84q0 14 4 32.5t13 34t25.5 25.5t39.5 10q43 0 69.5 -31.5t26.5 -60.5q0 -43 -31 -69.5t-65 -26.5q-47 0 -64.5 26.5t-17.5 59.5z" />
<glyph unicode="0" horiz-adv-x="835" d="M76 676q0 94 7 197.5t27.5 202t56.5 182t93 143.5q29 29 81 34t87 5q18 0 45 1t47 -16q20 -16 35.5 -43.5t26.5 -46.5q49 -72 76.5 -127t39.5 -116q14 -72 30.5 -149t16.5 -146v-303q0 -29 -7 -61t-16 -60.5t-17.5 -52t-8.5 -31.5q-6 -41 -33.5 -98.5t-67.5 -109.5 t-90 -89t-102 -37q-35 0 -84 22.5t-92 79.5q-16 23 -39.5 55.5t-33.5 57.5q-23 61 -37.5 131t-23.5 138.5t-13 130t-4 106.5zM158 621q0 -16 3 -64.5t12 -111t26.5 -131t45 -126t66.5 -94.5t95 -37q29 0 59.5 23.5t57 56.5t46 64.5t27.5 50.5q14 39 29.5 85t21.5 75 q4 25 8 63.5t7.5 76.5t5.5 66.5t2 32.5q0 53 -8.5 124t-20.5 130q-8 39 -11 83t-14 77q-8 29 -16 50.5t-18.5 43t-21.5 45t-25 53.5q-20 41 -60.5 62.5t-66.5 21.5q-4 0 -17.5 -2t-28 -4t-26.5 -6t-14 -6q-53 -55 -77 -117.5t-40 -115.5q-4 -12 -12.5 -65.5t-16.5 -124.5 t-13 -146.5t-5 -132.5z" />
<glyph unicode="1" horiz-adv-x="446" d="M72 1114q0 25 24.5 65t55 77.5t56 67.5t30.5 36q6 12 28.5 27.5t34.5 15.5t20.5 -18.5t13.5 -41t7 -43t2 -22.5l8 -596l-4 -588q-6 -35 -11 -64.5t-34 -29.5q-16 0 -26.5 21.5t-10.5 33.5v1002q0 20 -9 48t-26 52q-8 2 -18 -2t-18 -10q-12 -8 -25.5 -20.5t-25 -25 t-20.5 -20.5t-13 -8q-23 0 -31 16.5t-8 26.5z" />
<glyph unicode="2" horiz-adv-x="698" d="M43 66q0 8 10 39.5t19 52.5q16 37 35.5 77.5t41 83.5t46 85t51.5 77q16 25 42.5 51.5t51.5 61.5q10 14 19.5 30.5t15.5 30.5q39 94 68.5 150.5t50 99.5t31 85t10.5 110q0 16 -3.5 65t-16.5 101.5t-41 92.5t-79 40q-37 0 -73.5 -21.5t-67.5 -55.5t-51.5 -76t-22.5 -81 q-2 -10 -2 -25.5t-4 -29.5q-2 -10 -2 -26.5t-2 -30.5q-2 -8 -3 -19.5t-7 -21.5q-10 -18 -31 -19q-16 0 -24.5 11.5t-11.5 27t-3 28.5v19q0 59 17.5 133t46.5 134q6 12 21 29.5t33.5 33.5t37 28.5t28.5 18.5q25 12 38.5 19.5t24.5 12.5t23.5 6t36.5 1q12 0 21.5 1t17.5 -1 t19.5 -6t27.5 -16q20 -14 40 -37t35 -47.5t26.5 -48t15.5 -42.5q6 -27 9 -61.5t4 -67t2 -57.5t1 -29q0 -74 -15 -134t-43 -119.5t-63.5 -125t-74.5 -149.5q-4 -6 -17.5 -22.5t-32 -37t-36 -42t-29.5 -37.5q-10 -14 -29.5 -48t-41 -72t-37 -74t-15.5 -52q0 -31 16.5 -47.5 t40 -23.5t48 -7h41.5q4 0 21.5 1t38 2t38.5 2t23 1q10 0 39.5 -1t60.5 -6t54.5 -16t23.5 -34q0 -18 -16.5 -29.5t-36 -15.5t-37 -5t-19.5 -1l-182 16q-4 0 -22.5 -1t-39 -2t-39 -2t-22.5 -1q-16 0 -45 1t-56.5 7t-48 19.5t-20.5 38.5z" />
<glyph unicode="3" horiz-adv-x="841" d="M61 434q0 29 12.5 33t22.5 4q27 0 42.5 -24.5t22.5 -54.5t10 -56.5t3 -30.5q4 -20 7 -47t18 -49q41 -61 105.5 -106.5t125.5 -45.5t107.5 38t77 90.5t46 109.5t15.5 94q0 51 -13.5 114.5t-43 122t-78.5 102.5t-119 58q-8 0 -19.5 8.5t-19.5 16.5v43q8 8 20.5 16.5 t22.5 8.5q61 6 110.5 36.5t83 75.5t52 96.5t18.5 96.5q0 10 -1 35.5t-11 42.5q-14 31 -39 60.5t-53.5 52t-60 35.5t-60.5 13q-57 0 -99 -36.5t-70 -89t-42 -108.5t-16 -95q0 -23 -31 -58h-33q-8 12 -12 36t-4 34q0 43 16 112.5t52 137t93.5 117t137.5 49.5q82 0 162.5 -54.5 t140.5 -167.5q10 -23 14 -62.5t4 -49.5q0 -80 -24.5 -136.5t-55 -99.5t-55.5 -74.5t-25 -58.5q0 -18 10.5 -38.5t24 -42t26.5 -40t19 -32.5q35 -70 47.5 -142.5t12.5 -136.5q0 -47 -7.5 -90t-24.5 -86t-46 -87t-72 -95q-12 -14 -35.5 -27.5t-50 -23t-52.5 -14.5t-44 -5 q-78 0 -158 43t-135 129q-20 31 -33.5 80t-21.5 97t-12.5 84t-4.5 42z" />
<glyph unicode="4" horiz-adv-x="808" d="M86 442q0 20 12.5 59.5t28.5 80.5t31.5 75.5t21.5 49.5q16 47 38 102t44 109q10 25 33.5 69.5t49.5 99t47.5 110.5t29.5 99q2 16 9 40t19.5 44.5t32 31.5t47.5 3q4 -8 8.5 -18.5t6.5 -24.5q4 -51 10 -121.5t12 -136t10.5 -114t4.5 -52.5v-170q0 -4 2 -17t3 -28.5t3 -29 t2 -17.5v-170q0 -43 20.5 -62.5t44 -28.5t44 -18t20.5 -32q0 -16 -8 -27q-8 -4 -28.5 -10t-41 -17.5t-36 -29t-15.5 -39.5v-197q0 -16 -11.5 -44.5t-33.5 -28.5q-16 0 -24.5 5t-12.5 33l6 175v44.5t-16 51.5q-10 14 -28.5 23.5t-38 16.5t-40 10t-35.5 5q-53 8 -109 7 t-110 14q-41 10 -47 30.5t-6 44.5zM209 520q0 -14 2 -30.5t25 -24.5q18 -6 52 -13.5t66.5 -12.5t59 -8t30.5 -3q23 0 37.5 14.5t21.5 37t10 49t3 51.5q0 4 -2 39.5t-4 85t-6 101.5t-6 91q-2 35 -9.5 68.5t-11.5 68.5q-2 8 -22 8q-10 0 -20.5 -3t-14.5 -9q-29 -37 -56.5 -95 t-46.5 -104q-4 -10 -21 -55t-36.5 -97t-35 -99.5t-15.5 -59.5z" />
<glyph unicode="5" horiz-adv-x="710" d="M53 315q0 16 7.5 34t23.5 18q23 0 41 -46.5t46 -102.5t74 -102t124 -46q66 0 99.5 44t48.5 102t16.5 112.5t1.5 77.5v64.5t-5.5 89.5t-17.5 98.5t-36.5 91.5t-62.5 66.5t-94 25.5q-51 0 -77.5 -18.5t-43 -40t-29.5 -40t-36 -18.5q-16 0 -22.5 11.5t-9.5 25.5t-2 27.5 t1 17.5t6.5 43t14.5 85t14 86t6 44v270q0 10 6.5 35t20.5 39q8 6 24.5 8t26.5 4q35 6 70 9.5t69 5.5q18 0 45 2t51.5 4t44 3t23.5 1q20 0 51 -2t50 -25v-43q-18 -18 -33 -20q-78 -16 -145.5 -11t-118 -2.5t-80 -41t-29.5 -127.5q0 -4 1 -28t3 -54.5t2 -65.5v-61 q25 -18 52.5 -24.5t56 -8.5t57.5 -3t57 -11q16 -6 38 -30t36 -42q39 -55 58.5 -108.5t27.5 -109t7 -111.5t-1 -118v-22.5v-43t-1 -49t-1 -38.5q-4 -35 -21.5 -82t-37.5 -84q-23 -41 -44.5 -63.5t-43 -33t-44 -13.5t-48.5 -3q-92 0 -174 65.5t-119 182.5q-4 8 -8 23.5 t-7.5 31t-6.5 28.5t-3 17z" />
<glyph unicode="6" horiz-adv-x="790" d="M80 561q0 172 28.5 347t79.5 341q6 18 23.5 54t40.5 65q39 53 93 70.5t99 17.5q135 0 198 -71.5t63 -190.5q0 -8 -1.5 -23.5t-6.5 -31t-13 -26.5t-20 -11q-18 0 -24.5 18.5t-9.5 47t-8.5 60.5t-21.5 60.5t-51 47t-94 18.5q-23 0 -41.5 -3t-59.5 -20q-29 -12 -55.5 -63 t-48 -112.5t-34.5 -121t-13 -90.5q0 -41 8 -61.5t55 -20.5q10 0 42 9.5t54 19.5q16 6 44 6h38h40.5t23.5 -2t26.5 -9t51.5 -22q31 -12 48 -59t26.5 -103.5t11.5 -109.5t2 -78v-13v-29.5t-1 -56.5t-3 -93q-2 -14 -6.5 -34t-4.5 -34q2 -55 -21.5 -109.5t-62 -97.5t-89 -69.5 t-101.5 -26.5q-45 0 -101.5 36t-97.5 107q-25 43 -48 91t-36 96q-8 27 -12 63.5t-6 76.5t-3 77t-1 63zM162 518q0 -27 1 -59.5t4 -64.5t7 -58.5t10 -40.5q8 -25 25.5 -66t43.5 -79.5t59.5 -67.5t76.5 -29q35 0 66.5 15.5t57.5 40t42 56.5t20 64q2 33 5.5 75t4.5 79t2 63.5 t1 30.5q0 33 1 74t-3 83t-15.5 80t-35.5 62q-16 20 -38 19.5t-38 -0.5q-18 0 -57.5 -5.5t-81 -16.5t-77.5 -29.5t-48 -43.5q-29 -51 -31 -99t-2 -83z" />
<glyph unicode="7" horiz-adv-x="747" d="M102 1378q0 12 13.5 29.5t29.5 17.5l170 -14h250q29 0 63 -15t34 -46q0 -4 -9.5 -29t-23 -58.5t-27.5 -72.5t-27 -74q-27 -80 -64.5 -191.5t-76.5 -233.5t-74.5 -242.5t-58.5 -219.5q-6 -23 -14 -53.5t-15 -58.5q0 -2 -3 -20.5t-9 -39t-17.5 -38t-25.5 -17.5 q-27 0 -30 26.5t-3 43.5q0 55 16.5 126.5t30.5 125.5q35 117 74 239.5t78 239.5t74 221t59 184q4 14 3 31.5t-1 40.5q-29 29 -70.5 34t-80.5 5q-4 0 -19.5 -1t-32 -2t-32 -2t-21.5 -1q-12 0 -37.5 2t-53.5 9t-48.5 20.5t-20.5 33.5z" />
<glyph unicode="8" horiz-adv-x="860" d="M86 333.5v37v22.5v93.5t23 97.5q10 18 28.5 45.5t37 57.5t31.5 58.5t13 51.5q0 25 -15.5 52.5t-32.5 59t-32.5 67.5t-15.5 75q0 4 -5 29.5t-5 65.5t10 92t41 112q8 14 34.5 41.5t55.5 38.5q27 8 53.5 16t36.5 8h43t55 -6q35 -10 87.5 -26.5t88.5 -59.5q14 -16 32 -46 t33 -64.5t26.5 -68.5t11.5 -59q0 -23 -6 -51.5t-17.5 -58t-27 -56t-33.5 -45.5q-41 -41 -55.5 -61.5t-14.5 -48.5q0 -25 9.5 -41.5t27 -31.5t40 -31.5t48.5 -43.5q25 -23 40.5 -60.5t24.5 -78.5t12 -78.5t3 -62.5q0 -45 -8 -103.5t-31.5 -114t-66.5 -99.5t-111 -60 q-29 -6 -70 -17.5t-73 -11.5q-121 0 -199 73t-121 222q-4 10 -5 29.5t-1 40zM168 410q0 -55 10 -114.5t38 -109t79 -82t131 -32.5q29 0 66.5 9t78.5 32q39 20 61.5 53t35 69.5t15.5 74.5t3 69q0 10 -1 45t-7 61q-4 20 -11.5 44t-19.5 38q-23 29 -53.5 59.5t-63 57.5 t-65.5 43t-59 16q-43 0 -78 -21.5t-63.5 -53t-50 -70.5t-34.5 -76q-10 -31 -11 -66.5t-1 -45.5zM198 1134.5q5 -30.5 11 -61.5q6 -33 18.5 -66.5t32 -61t49 -46t72.5 -18.5q51 0 96 19.5t79 53t53.5 77.5t19.5 91q0 20 -2 29q-2 12 -11.5 35.5t-21.5 47t-27.5 44t-29.5 31.5 q-47 31 -90.5 40t-86.5 9q-23 0 -45 -3t-39 -20q-39 -39 -56 -72.5t-22 -65.5t0 -62.5z" />
<glyph unicode="9" horiz-adv-x="753" d="M57 227q0 8 1 23.5t6.5 31t13.5 26.5t20 11q27 0 30 -38.5t12.5 -87t43 -87t123.5 -38.5q23 0 41.5 3t59.5 19q29 12 55 63.5t47.5 113t35 120.5t13.5 90q0 41 -8 61.5t-55 20.5q-10 0 -42 -9t-55 -20q-16 -6 -43.5 -6h-38.5h-41t-22 2t-26.5 9.5t-51.5 21.5 q-31 12 -48 59.5t-26.5 103.5t-11.5 109.5t-2 77.5v13.5v30t1 56t3 93.5q2 14 6 33.5t4 33.5q-2 55 21.5 109.5t62.5 97.5t89.5 69.5t101.5 26.5q45 0 101.5 -35.5t96.5 -107.5q25 -43 48.5 -91t35.5 -95q8 -27 12.5 -64t6.5 -76.5t3 -76.5t1 -64q0 -172 -28.5 -347 t-80.5 -341q-6 -18 -23.5 -54t-39.5 -65q-39 -53 -93.5 -70.5t-99.5 -17.5q-135 0 -197.5 71.5t-62.5 190.5zM173 869q-1 -42 3 -83t15.5 -78.5t35.5 -62.5q16 -20 38 -19t38 1q18 0 57 5t81 16t78 29.5t48 43.5q29 51 31 99t2 83q0 27 -1 59.5t-4 64.5t-7 58.5t-10 40.5 q-8 25 -25.5 66t-43.5 80t-59.5 67.5t-76.5 28.5q-35 0 -67 -15.5t-57.5 -40t-42 -56t-20.5 -64.5t-6 -75t-3 -79t-2 -63.5t-1 -30.5q0 -33 -1 -75z" />
<glyph unicode=":" horiz-adv-x="325" d="M70 84q0 14 4 32.5t13 34t25.5 25.5t39.5 10q43 0 69.5 -31.5t26.5 -60.5q0 -43 -31 -69.5t-65 -26.5q-47 0 -64.5 26.5t-17.5 59.5zM70 801q0 14 4 32.5t13 34t25.5 25.5t39.5 10q43 0 69.5 -31.5t26.5 -60.5q0 -43 -31 -69.5t-65 -26.5q-47 0 -64.5 26.5t-17.5 59.5z " />
<glyph unicode=";" horiz-adv-x="272" d="M4 -197q0 20 12.5 30.5t27.5 21t28.5 23.5t17.5 40q4 41 -1 84t-1 84q0 12 8 19.5t17.5 12.5t18.5 6t11 1q18 0 27.5 -9.5t12.5 -22.5t2 -26.5t-1 -21.5v-19.5t-1 -36t-3 -43t-4 -38.5q-2 -23 -23.5 -64t-41.5 -65q-16 -18 -28.5 -20.5t-23.5 -2.5q-55 0 -55 47zM49 801 q0 14 4 32.5t13.5 34t26 25.5t38.5 10q43 0 69.5 -31.5t26.5 -60.5q0 -43 -30.5 -69.5t-65.5 -26.5q-47 0 -64.5 26.5t-17.5 59.5z" />
<glyph unicode="?" horiz-adv-x="655" d="M70 1163q0 45 13 108.5t45 121t85 98.5t131 41q27 0 47.5 -6t61.5 -29q43 -23 69.5 -55.5t41 -69.5t18.5 -72.5t4 -66.5q0 -4 -2 -33t-6.5 -65.5t-10.5 -76.5t-14 -67q-6 -23 -23.5 -56.5t-39 -73.5t-43 -84t-33.5 -87q-10 -31 -18.5 -82t-12.5 -98q-2 -20 4 -49t7 -55.5 t-6 -46t-38 -19.5q-25 0 -37 17.5t-17 40t-6 44t-1 29.5q0 39 11 97.5t28.5 117.5t39 113.5t44.5 87.5q8 10 26.5 62t38.5 120q6 20 10.5 48t7.5 54.5t4 46t1 23.5q0 23 -8.5 54.5t-27 61t-45 51.5t-63.5 22q-55 0 -100 -37t-61 -95q-12 -37 -15.5 -70.5t-3.5 -65.5t1 -60.5 t-3 -52.5q-2 -20 -19.5 -24.5t-23.5 -4.5q-23 0 -35 21.5t-18 47t-7 48t-1 26.5zM244 119q0 41 27.5 61.5t62.5 20.5q49 0 78.5 -37t29.5 -78q0 -35 -26.5 -69.5t-65.5 -34.5q-31 0 -51 17t-32.5 40.5t-17.5 46.5t-5 33z" />
<glyph unicode="@" horiz-adv-x="915" d="M70 592v24.5t1 46t4 51t7 40.5q8 27 11 46t2 36.5t-2 34t3 36.5q6 35 15.5 82t21.5 88q6 20 23.5 47t29.5 56q6 16 11.5 40.5t17.5 41.5q43 55 78 96t67.5 68.5t67.5 42t80 14.5q16 0 43 -4t55 -25q68 -47 114 -109.5t74.5 -130t41 -137.5t12.5 -127q0 -8 -2 -47t-6 -74 q-4 -55 -14.5 -128.5t-24.5 -127.5q-10 -31 -23.5 -70.5t-26 -76.5t-21.5 -63.5t-9 -30.5q0 -18 8 -24.5t19.5 -11.5t19.5 -14.5t8 -31.5q0 -25 -16.5 -49.5t-22.5 -46.5q-12 -39 -41.5 -77t-69.5 -67.5t-83 -48t-80 -18.5q-35 0 -56.5 4t-44 19.5t-51 43t-75.5 76.5 q-12 14 -33 52t-31 67q-43 92 -74 184q-4 12 -9 39t-9 57.5t-7 60t-3 46.5zM156 723q0 -14 1 -40t1 -79v-24.5v-45t1 -48t5 -35.5q16 -59 37.5 -117t50.5 -109q41 -74 96 -130t127 -56q20 0 53 18.5t65 45t54.5 58.5t22.5 60v47q-39 0 -51.5 1t-22.5 1q-33 0 -64.5 12.5 t-35.5 12.5t-18.5 -4t-30 -8t-28.5 -8.5t-18 -4.5q-16 0 -42.5 5.5t-39.5 15.5q-29 27 -45 67.5t-25 85.5t-12.5 88t-3.5 76q0 92 15.5 184.5t34.5 165.5q10 31 16 72t23 70q27 45 82 63.5t96 18.5q23 0 48 -8.5t51 -20.5t50.5 -24.5t42.5 -20.5q16 -10 19.5 -20.5 t3.5 -22.5q0 -10 -12.5 -44t-16.5 -56q-16 -88 -24.5 -177.5t-20.5 -177.5q-4 -27 -13.5 -65.5t-9.5 -46.5v-80h19q37 41 57.5 106.5t24.5 106.5q4 23 1 51.5t1 44.5q10 45 16 70.5t10.5 42t6.5 33t2 47.5q0 53 -7.5 114.5t-29.5 124.5q-10 31 -31.5 66t-32.5 57 q-8 16 -23.5 35.5t-37 36t-47 27t-49.5 10.5q-31 0 -68 -30t-69.5 -68t-58.5 -76.5t-36 -57.5q-29 -51 -51 -112.5t-27 -88.5q-12 -76 -18 -116.5t-9 -62t-4 -32t-1 -24.5zM332 618q0 -14 1 -51t8 -75.5t21.5 -68.5t43.5 -30q35 0 68.5 32t43.5 67q14 41 22.5 89t12.5 94 t7 86t7 64q2 14 8.5 38t12.5 46.5t10 41t4 22.5q0 41 -16.5 73.5t-71.5 32.5q-8 0 -25.5 -3t-36 -7t-34 -12t-19.5 -17q-39 -94 -51 -188q-4 -29 -7 -68t-5 -73.5t-3 -61t-1 -31.5z" />
<glyph unicode="A" horiz-adv-x="786" d="M61 43q0 8 7.5 25.5t11.5 31.5q10 41 13 86t11 93q4 31 12.5 64.5t12.5 62.5q2 10 4 25t6 32q45 178 78 317.5t56.5 254t40 213t30.5 198.5q2 8 21.5 23.5t29.5 15.5q12 0 23.5 -17.5t19.5 -39t13.5 -39t5.5 -19.5q10 -41 23.5 -89t17.5 -87q2 -12 8 -35.5t15 -53.5 t17.5 -60.5t12.5 -55.5q14 -76 21.5 -152.5t23.5 -152.5q6 -33 17.5 -71t19.5 -72q8 -31 9 -71t5 -75q2 -14 10.5 -43.5t12.5 -52.5q8 -37 17 -76t34 -88q10 -20 13.5 -47.5t13.5 -56.5q-8 -4 -19.5 -10.5t-21.5 -6.5q-29 0 -47.5 31t-28.5 68t-14.5 68.5t-4.5 33.5 q-6 25 -11 55.5t-10 62.5t-11.5 61.5t-12.5 51.5q-4 8 -12 14.5t-14 8.5q-31 4 -65 4t-68 4q-6 0 -18.5 1t-26 3t-24.5 3t-15 1q-18 0 -50 -2t-49 -18q-14 -16 -22 -43t-12.5 -56.5t-6.5 -58t-4 -49.5q-2 -29 -8 -67.5t-6 -61.5q0 -27 3 -53.5t-1 -52.5q-4 -20 -21.5 -31.5 t-31.5 -11.5q-29 0 -41.5 22.5t-12.5 40.5zM252 600q0 -18 23.5 -28.5t54 -14.5t58.5 -4h38h53t58 10q-6 68 -18.5 150t-26 158.5t-25.5 137t-18 85.5q-8 35 -20.5 74.5t-20.5 74.5q-20 -41 -34 -86t-24 -91t-18 -89t-17 -78q-8 -35 -18 -77t-18 -72q-4 -16 -9.5 -40 t-9.5 -47.5t-6 -41t-2 -21.5z" />
<glyph unicode="B" horiz-adv-x="761" d="M72 703.5q0 31.5 6 76.5l6 609q4 23 2 45t20 45q8 8 21.5 14t24.5 10q18 6 43.5 9.5t50 4.5t43 2t22.5 1q41 0 80 -8.5t84 -30.5q59 -27 94 -71t53.5 -95t23.5 -102.5t5 -92.5q0 -49 -6 -85t-22.5 -69.5t-45 -69.5t-73.5 -85q4 -8 7 -16.5t7 -12.5q35 -31 55.5 -57.5 t35 -53t24.5 -51t26 -49.5q8 -12 9.5 -31.5t5.5 -35.5q10 -49 17 -85t7 -85q0 -94 -40 -155.5t-106.5 -97.5t-150.5 -51.5t-172 -17.5q-4 0 -16 -3t-26.5 -8t-27 -8t-18.5 -3q-16 0 -27.5 11t-17.5 26.5t-9 31t-3 25.5v479q0 23 -3 42.5t-6 43t-3 55zM145 717q0 -10 4.5 -37 t6.5 -43q2 -20 -2 -47t-4 -37v-326q0 -23 3 -47t13 -43.5t28.5 -32t47.5 -12.5q4 0 30.5 3t61.5 8.5t69.5 12.5t57.5 13q29 8 56.5 33.5t48 57.5t32.5 63.5t12 54.5q0 8 -4 24.5t-10 34t-10 31.5t-4 18q-6 43 -28 100.5t-58 105.5q-38 48 -92 78q-39 21 -85 21q-19 0 -38 -3 q-18 -4 -42 8t-32 12q-27 0 -44.5 -8t-17.5 -43zM145 942q0 -57 27 -69.5t78 -12.5q39 0 89 6t93 24.5t73 51.5t30 88q0 18 3 43t7 46.5t7 38t3 20.5q0 117 -72.5 183t-187.5 66q-10 0 -29.5 -2t-40 -7t-36 -12t-17.5 -15q-12 -61 -15 -129t-7 -119q-2 -61 -3.5 -99 t-1.5 -59.5v-30v-12.5z" />
<glyph unicode="C" horiz-adv-x="837" d="M82 780q0 4 1 37t3 76t5 88t7 76q2 20 12.5 50t22.5 63.5t26.5 68.5t28.5 66q14 29 27.5 67.5t38.5 69.5q12 18 32.5 35.5t43 31t47 22.5t45.5 9q47 0 89 -25.5t76 -66.5t59.5 -90t41.5 -94q2 -10 11.5 -33t19.5 -50.5t17 -55t7 -46.5q0 -16 -13 -38.5t-36 -22.5 q-10 0 -26.5 9t-16.5 20q0 8 -5 40.5t-16.5 76.5t-28.5 92.5t-43 88t-58.5 66.5t-73.5 27q-45 0 -81 -37t-62.5 -83t-42 -89t-17.5 -55q-6 -27 -21.5 -60t-21.5 -67q-4 -31 -9 -72t-9 -79t-6 -66.5t-2 -32.5q0 -59 15 -156.5t37.5 -192t46 -167t42.5 -82.5q6 -4 10 -16.5 t8 -20.5q6 -8 14.5 -23.5t19.5 -31t26.5 -27.5t34.5 -17q8 -2 17 -5t17 -3q47 0 85 28t68 70t49.5 89t29.5 84q9 30 9 56q0 12 -2 24q-7 36 -9 77q0 12 13 33t30 21q12 0 18 -9.5t9 -21.5t4.5 -24.5t1.5 -18.5q0 -25 -5.5 -71t-18.5 -101t-35.5 -111.5t-55.5 -103.5t-79 -77 t-105 -30q-74 0 -126.5 44t-99.5 147q-10 23 -28.5 54.5t-28.5 64.5q-10 29 -13 61.5t-12 60.5q-6 29 -16 75t-19.5 98.5t-16.5 106.5t-7 99z" />
<glyph unicode="D" horiz-adv-x="813" d="M76 125q0 4 3 29.5t6 60.5t6 72t3 63q0 20 -2 50t-4 57.5t-4 48t-2 24.5v926q0 18 18.5 29.5t43 16.5t47 6t30.5 1q131 0 241.5 -69.5t215.5 -247.5q8 -12 14 -28.5t13 -33.5q14 -47 18 -125.5t4 -144.5q0 -43 -2 -71.5t-5 -59.5t-8 -73t-14 -111q-2 -10 -8 -29.5 t-8 -36.5q-6 -72 -25.5 -136t-70.5 -128q-12 -16 -41 -45t-62.5 -58.5t-69.5 -55t-67 -33.5q-16 -4 -45 -9.5t-57.5 -9.5t-51 -7t-28.5 -3q-29 0 -46.5 14.5t-26.5 33.5t-12 41.5t-3 41.5zM158 1303l10 -814q0 -90 1 -177t1 -177q0 -8 5 -18.5t9 -18.5q24 0 52 -1h18 q17 0 31 1q31 2 68.5 25.5t72.5 53.5t63.5 61.5t40.5 50.5q40 71 64 157q20 73 21 146q0 12 -1 24q0 23 10.5 52.5t10.5 40.5v135q0 8 5 31.5t5 33.5q0 49 -12 103.5t-21 95.5q-10 49 -52 98t-89 99q-12 12 -24.5 29.5t-22.5 25.5q-45 27 -81 37t-81 10q-41 0 -71.5 -16.5 t-32.5 -87.5z" />
<glyph unicode="E" horiz-adv-x="704" d="M66 94l10 854l16 209v205q0 8 -3 18.5t-5 22.5t1 30.5t13 47.5q2 4 10.5 9t16.5 5q29 6 63.5 7t69.5 1q31 0 73 1t80 1t66.5 1t34.5 1q12 0 29.5 -1t35 -7t29.5 -16.5t12 -28.5q0 -16 -8 -24.5t-18 -11.5t-20.5 -3h-14.5t-28.5 2t-54.5 5t-54.5 6.5t-28.5 3.5t-24.5 -1 t-48 -3.5t-56.5 -4.5t-49 -4q-6 0 -14.5 -10t-15.5 -24.5t-11 -28t-4 -19.5v-293q0 -4 -3 -24.5t-7 -44t-7.5 -44t-3.5 -24.5q0 -43 17.5 -61.5t43 -23.5t53.5 -3t48 2q4 0 27.5 2t49.5 3t49.5 3t27.5 2q23 0 41 -9t18 -36q0 -8 -2 -23t-20 -18q-18 0 -44 -2t-49.5 -4 t-42 -3t-22.5 -1t-20.5 2t-35 3t-36 3t-21.5 2q-31 0 -47 -8t-24 -22.5t-9.5 -30.5t-1.5 -33v-452q0 -8 4.5 -24.5t11.5 -34t15 -33t15 -21.5q4 -4 35.5 -8t69.5 -8t74 -7.5t48 -3.5q4 0 21.5 2t38 5.5t39 5.5t24.5 2q23 0 42 -12.5t19 -32.5q0 -25 -21.5 -36t-47 -16.5 t-50 -5.5h-30.5q-92 0 -135.5 10.5t-59.5 10.5q-4 0 -18.5 -2t-31.5 -3t-31.5 -3t-20.5 -2q-61 0 -76.5 29.5t-15.5 82.5z" />
<glyph unicode="F" horiz-adv-x="722" d="M66 758q0 4 2 22.5t5 39t5 39t2 22.5v204l20 201v121q0 10 -1 35.5t3 44.5q4 4 10.5 10t10.5 8q14 8 35.5 10.5t44 2.5t43 -2.5t37.5 -2.5q31 0 71.5 1.5t79.5 3.5t66.5 4t34.5 2q8 0 24 -2t31.5 -6.5t27 -14.5t11.5 -24q0 -16 -14.5 -23.5t-33 -10.5t-36 -2t-21.5 1 l-168 4q-57 0 -94 -3t-59.5 -20.5t-31.5 -51.5t-9 -95v-166q0 -4 -2 -30.5t-5 -57.5t-5.5 -58.5t-2.5 -33.5q0 -29 -1 -52.5t3.5 -39t15.5 -23.5t38 -8q4 0 21.5 1t40 2t47 3t42.5 2q14 0 36 3t42.5 6t36.5 5t20 2q8 0 33 -10t29 -16v-39q-6 -6 -17.5 -12t-19.5 -9 q-18 0 -39.5 -2t-42 -4t-37 -3t-20.5 -1h-133q-39 0 -59.5 -12t-30 -31.5t-10.5 -41t-1 -40.5l17 -411q-8 -16 -6 -37t8 -41.5t12 -42t6 -41.5q0 -49 -41 -49q-16 0 -27.5 11t-17.5 25.5t-9 29t-3 18.5v147q0 10 2 43t0 55q-2 16 -4 37t-2 41q0 27 7 62t7 45t-3 54t-3 79 q0 12 -3 31.5t-6 38t-6 33t-3 20.5z" />
<glyph unicode="G" horiz-adv-x="933" d="M79 730q-1 20 -1 37t1 31q1 27 1 31q16 92 29.5 160t29 124t37 110.5t55.5 119.5q47 90 97.5 140.5t120.5 50.5q66 0 126 -22.5t109 -67.5t81 -109.5t38 -146.5q0 -4 4 -21.5t8 -37t8 -37t4 -21.5q0 -18 -10 -41.5t-37 -23.5q-35 0 -46 30.5t-17 77.5t-13.5 101.5 t-33 101.5t-74.5 77.5t-139 30.5h-41t-41 -16q-31 -29 -54.5 -71t-50.5 -91q-6 -10 -2 -12t0 -14q-25 -66 -47 -130.5t-38.5 -127t-23.5 -123.5q-4 -34 -4 -66q0 -28 3 -55q10 -82 15 -163t28 -171q14 -55 27.5 -123.5t52.5 -122.5q39 -55 90 -70.5t100 -15.5h31.5t40.5 6 q53 18 89 56.5t58.5 85.5t32.5 97t12 91q0 10 4 31.5t7.5 45t6.5 42t3 22.5q0 12 -1 26.5t-7.5 28t-18.5 22.5t-33 9h-147q-29 0 -47.5 12.5t-18.5 35.5q0 29 27 37t41 8q4 0 28.5 -3.5t53.5 -7.5t53.5 -7t28.5 -3q8 0 30.5 3t32.5 3q45 0 52.5 -27.5t7.5 -54.5 q0 -4 -3.5 -25.5t-6.5 -49t-7 -56t-4 -47.5q0 -106 -18.5 -192t-58.5 -147.5t-105.5 -94.5t-161.5 -33q-59 0 -111.5 11.5t-97.5 46.5q-63 49 -92 133q-23 70 -41 169t-37 218q-6 49 -10 97t-5 88z" />
<glyph unicode="H" horiz-adv-x="864" d="M72 14.5v18.5l14 291v208l6 707q-2 14 -4 33.5t-3 38t-2 33t-1 18.5q0 6 1 20.5t6 29.5t15.5 27.5t26.5 12.5q14 0 24.5 -18.5t14.5 -41t6 -42t2 -23.5v-313q0 -10 -4 -48t-4 -69q0 -16 -1 -36.5t-1 -39t4 -31t14 -14.5q14 -2 36 -4t41.5 -3t34.5 -2t19 -1h99q4 0 29.5 1 t59.5 3t70.5 5t65.5 7q10 2 25.5 12.5t17.5 20.5q2 23 1 41t-2 40t-2 49.5t-1 68.5q0 14 2 34.5t4 42t3 38t1 20.5q0 6 -4 39t-8 71.5t-8 72.5t-4 38v20.5t4 28t13 23.5t26 10q20 0 32.5 -24.5t17.5 -55.5t6 -57.5t1 -28.5q2 -8 -1 -19.5t-1 -21.5q2 -16 3 -36.5t2 -40 t2 -35t1 -19.5l-10 -680l-14 -274q0 -6 4 -30t8 -51.5t8 -52t4 -28.5q0 -31 -15.5 -44t-35.5 -13t-31.5 11t-16.5 26.5t-6 30t-1 20.5q0 4 2 16t3 26.5t3 26t2 15.5v188q0 4 2 38t3 74t3 73.5t2 37.5q0 27 2 54.5t-1 49t-15.5 36t-42.5 14.5q-8 0 -36 -2t-38 -2q-4 0 -38 3 t-72.5 7t-72.5 7t-40 3q-25 0 -59.5 -4t-63.5 -20t-43 -44q-7 -14 -7 -33t7 -44q4 -14 3 -51t-5 -68q0 -16 -2 -37.5t-4 -44.5q-2 -68 -3 -105.5t-1 -56v-24.5v-10t3 -26t7 -45.5t7 -45t3 -25.5q0 -27 -13.5 -48t-39.5 -21q-20 0 -30.5 13t-14.5 29.5t-4 31z" />
<glyph unicode="I" horiz-adv-x="284" d="M76 231l16 492v229l6 353q-2 14 -4 33.5t-5 38t-5 32.5t-2 21q0 6 1 19t6 26.5t15.5 22.5t28.5 9t29.5 -11t17.5 -25.5t8 -29t2 -22.5q0 -10 -5 -33.5t-5 -33.5v-441q0 -4 -2 -18t-4 -31.5t-5 -36t-3 -32.5q-2 -23 1 -60t3 -47v-180q0 -4 -3 -42t-6 -83t-5 -83t-2 -42 q0 -10 -1 -43t3 -59q2 -12 6 -27.5l8 -31t7 -28t3 -16.5q0 -27 -11 -48t-42 -21q-7 0 -15 -1h-3q-7 0 -12 3q-7 4 -13 15t-6 36z" />
<glyph unicode="J" horiz-adv-x="630" d="M74 340q0 12 3 32.5t12 41t23.5 37t34.5 16.5q20 2 43 -15.5t23 -35.5q0 -14 -5 -25.5t-12.5 -27t-12.5 -36t-3 -51.5q0 -18 8.5 -55t25.5 -72.5t45 -62.5q26 -25 63 -25h6q16 2 47 16.5t43 59.5q10 35 17 75t9 79q0 55 1 124.5t1 143.5v144.5v126t-1 90t-1 38.5l-14 230 q0 4 2 18.5t5 30.5t6 30.5t3 18.5l-10 178q-2 10 10.5 33t34.5 25q18 0 28.5 -14.5t16.5 -33t8.5 -36t2.5 -21.5q2 -37 -3.5 -56.5t-11.5 -32.5t-10 -25.5t-4 -32.5l18 -279q0 -4 -2 -24.5t-3 -43t-2 -43t-1 -26.5l8 -139q0 -4 1 -9.5t2 -17.5t3.5 -34.5t4.5 -65.5 q-4 -23 -7.5 -54.5t-1.5 -41.5l15 -273v-9q0 -33 -13 -72q-14 -44 -41.5 -82t-66.5 -63.5t-84 -27.5q-9 -1 -17 -1q-34 0 -65 12q-39 16 -80 53q-16 14 -27.5 37.5t-19.5 50t-13 54.5t-12 50q-4 12 -8 30.5t-9 36t-9 32t-4 20.5z" />
<glyph unicode="K" horiz-adv-x="831" d="M51 1399q0 16 4 34.5t37 18.5q16 0 27.5 -9t17.5 -21.5t9.5 -26t3.5 -21.5v-395q0 -8 5 -26.5t5 -28.5v-156q0 -10 -1 -44t1 -60h26q45 66 87 131t88.5 140t98.5 162t118 195q12 23 25 61t38 72q8 10 27.5 18.5t29.5 8.5q45 0 45 -41q0 -8 -9 -32.5t-19 -37.5 q-16 -18 -45 -40.5t-39 -40.5q-14 -27 -33.5 -75t-46.5 -89q-16 -25 -47 -66t-58 -84q-12 -20 -27.5 -47t-28.5 -52.5t-22.5 -45t-9.5 -25.5q0 -4 7.5 -25.5t19.5 -52t25.5 -63.5t25.5 -60q29 -59 67 -129.5t68 -136.5q23 -49 58 -104t86 -121q6 -8 10 -27.5t2 -31.5 q-6 -6 -17.5 -13.5t-23.5 -7.5q-16 0 -32.5 15.5t-31 36t-24.5 40t-16 27.5q-27 45 -48.5 91t-44.5 93q-23 49 -54.5 100.5t-47.5 104.5q-4 16 -20.5 45t-30.5 51q-10 20 -26.5 35.5t-26.5 15.5q-16 0 -28.5 -18t-23 -43t-17.5 -49.5t-11 -36.5q-6 -16 -19.5 -41t-17.5 -45 q-4 -12 -5 -31.5t-1 -29.5q0 -4 1 -26t2 -50.5t2 -59t1 -53.5q0 -16 3 -37.5t6 -42t6 -37t3 -20.5q0 -51 -45 -51q-27 0 -37 24.5t-11 55t3 57.5t4 29q-10 36 -11 70v17q0 25 2 50q3 33 4 63.5t-5 61.5v83.5v47t1 21.5t1 7q-2 2 -3 26t-2 51.5t-2 52t-1 28.5v144 q0 4 -2 28.5t-4 63.5t-4 90t-2 110q0 20 2 47t0 50q0 14 -4.5 35.5t-7.5 41t-6 36t-3 20.5z" />
<glyph unicode="L" horiz-adv-x="659" d="M80 1374v26.5t5 29t14.5 23.5t27.5 9q25 0 33 -22.5t8 -50t-3 -52t-3 -30.5v-437l26 -481v-215q0 -39 29 -56.5t72 -24.5t94 -7t94 -3t72 -14t29 -38q0 -29 -17.5 -39t-34.5 -10q-10 0 -41.5 12t-54.5 16q-12 2 -29.5 4t-34 3t-30.5 1h-19q-35 0 -53 -5t-31.5 -10 t-24.5 -10t-30 -5q-25 0 -37 12t-16 28.5t-6 35t-8 28.5l-5 686l-16 205v277q0 4 -2 21t-3 35.5t-3 36t-2 21.5z" />
<glyph unicode="M" horiz-adv-x="919" d="M63 1425q0 14 2.5 34t8.5 35t17 26.5t30 11.5q10 0 22.5 -4t18.5 -12q6 -6 11 -18.5t5 -18.5q10 -78 24.5 -157t24.5 -157q4 -20 17.5 -50t21.5 -56q16 -68 33.5 -153t36.5 -165q10 -47 30.5 -104t32.5 -107q14 -57 25.5 -124.5t40.5 -122.5q16 4 27 32q10 37 26.5 93.5 t28.5 107.5q10 31 13 72t11 76q31 143 62 287.5t63 291.5q6 27 14.5 62.5t16.5 64.5q2 10 5 37t11.5 55.5t21.5 51t38 22.5q14 0 23.5 -10t15.5 -22.5t8 -24t2 -15.5t-3 -21.5t-8 -39t-9.5 -45t-6.5 -39.5l11 -993q2 -18 2 -42q0 -18 -1 -40q-2 -31 -2 -58q0 -18 1 -34 q0 -8 3 -23.5l6 -31t5 -29t2 -19.5q0 -23 -5 -38t-30 -15q-18 0 -29.5 12t-17.5 29.5t-8 36t-2 30.5l-6 502q4 20 1 48t-5 55q-1 21 -1 39q0 26 2 46q3 32 5 59.5t-1 53t-20 62.5q-12 -12 -17 -28.5t-8 -35t-4 -36t-6 -31.5q-4 -16 -16 -42t-16 -46q-4 -35 -11.5 -92.5 t-19.5 -98.5q-8 -27 -11 -64.5t-12 -72.5q-12 -49 -27.5 -100.5t-31.5 -100.5q-6 -21 -6 -45q0 -8 1 -18q2 -26 2 -50v-16q-1 -31 -15.5 -51.5t-57.5 -20.5q-35 0 -51 21.5t-22.5 51.5t-7.5 60.5t-5 49.5q-14 57 -23.5 114.5t-21.5 114.5q-4 23 -19.5 57.5t-23.5 65.5 q-14 55 -28.5 119.5t-31 131t-34.5 128t-39 110.5q-8 -4 -12 -13t-4 -19v-549q0 -13 6 -59q3 -23 3 -44.5t-3 -40.5q-4 -23 -5 -54.5t3 -61.5q2 -16 6 -37t7 -40.5t5 -34.5t2 -19q0 -23 -8 -42.5t-35 -19.5q-29 0 -41 14.5t-15 33t0 37t3 26.5v250q0 4 -1 15t-3 25.5t-2 30 v27.5q2 20 4 49t5 56.5t5 48t2 26.5v158z" />
<glyph unicode="N" horiz-adv-x="798" d="M59 68l21 307v117q0 4 2 35.5t3 69.5t3 69.5t2 35.5v132q0 4 2 20t5 33.5t5 34t2 20.5v229q0 4 -2 26t-5 45.5t-5 45t-2 25.5q0 12 1 30.5t7 34t18.5 26.5t35.5 11q10 0 28.5 -9t24.5 -22q27 -59 43 -103t22 -87q0 -10 14.5 -29.5t22.5 -36.5q6 -16 10.5 -41.5t8.5 -42.5 q4 -16 19 -32.5t20 -38.5q16 -80 50 -171t64 -177q6 -16 21.5 -40t25.5 -46q10 -23 16.5 -49.5t14.5 -49.5q6 -20 31 -49q18 18 22 45q2 27 7.5 67t5.5 50v219q0 10 5 45t7 60v34.5v39t-1 33.5t-1 20v260q0 10 -3 34.5t-1 49t12 44t35 19.5q16 0 26.5 -10t16.5 -25.5t8 -31 t2 -25.5q0 -4 -2 -28.5t-4 -59.5t-6 -77t-6 -77t-4 -60.5t-2 -27.5v-405l-17 -367q0 -41 5 -62.5t10.5 -35t10.5 -24.5t5 -32q0 -20 -18.5 -47.5t-45.5 -27.5q-6 0 -26.5 9t-26.5 23q-4 6 -10 16.5t-10 24.5q-16 57 -35 121t-38.5 128.5t-39.5 126t-41 110.5 q-18 47 -42 113.5t-49.5 140t-51 146.5t-49.5 132q-4 10 -12.5 24.5t-24.5 31.5q-12 -10 -15.5 -26.5t-2.5 -36t3 -39t2 -34.5q0 -25 -8 -55.5t-12 -58.5l6 -238q0 -8 -2 -42t-8 -93q-4 -41 -8 -97.5t-7 -101.5q-2 -23 -2 -51.5v-50.5q3 -63 11 -109q2 -13 2 -26 q0 -32 -15 -62q-4 -8 -16 -12t-23 -4q-31 0 -38 26.5t-7 43.5z" />
<glyph unicode="O" horiz-adv-x="888" d="M72 580q0 61 5 164.5t34 230.5q2 12 0 28.5t2 32.5q4 8 15 23.5t7 30.5q-6 21 -6 41q0 13 3 27q7 34 22.5 66.5t34 62.5t34.5 56q6 10 19.5 22.5t29 24t30.5 21.5t24 14q12 6 26.5 17.5t24.5 15.5q12 4 29.5 8t34 7.5t29.5 4.5t17 1q33 0 72 -19.5t75 -50.5t64.5 -70 t42.5 -75q12 -35 24.5 -79t23 -93.5t16.5 -99.5t6 -95q0 -4 -3 -37l-7 -77t-9.5 -92t-9.5 -85q-2 -16 2 -40.5t0 -47.5q0 -16 -9 -55t-11 -70q-6 -90 -29.5 -171t-65.5 -142.5t-102.5 -98t-138.5 -36.5q-10 0 -33.5 1t-42.5 5q-37 6 -56.5 18.5t-29.5 22.5t-14 18t-10 8 q-10 0 -7 -2t-8 -2q-16 0 -29.5 18.5t-24.5 41t-17 41t-6 20.5q-12 37 -20.5 77t-18.5 77q-4 10 -11.5 22.5t-11.5 22.5q-10 45 -13 115.5t-3 130.5zM172 651q0 -23 7 -48t7 -36q-2 -23 -2 -69.5t7.5 -106t22.5 -122t44 -114t71 -84t103 -32.5q10 0 22.5 2t22.5 4 q12 2 35 16.5t45.5 34t40.5 39t23 35.5q12 35 26.5 75t24.5 79q8 37 8 78.5t4 74.5q4 23 11 51.5t7 38.5v150q0 16 10.5 53t10.5 109q0 39 -5 84t-12.5 91t-17.5 89t-22 76q-27 72 -84.5 118.5t-116.5 46.5q-47 0 -99.5 -43t-74.5 -98q-25 -66 -39 -126t-24.5 -118.5 t-18.5 -116t-21 -116.5q-6 -27 -11 -65.5t-5 -49.5z" />
<glyph unicode="P" horiz-adv-x="761" d="M59 90l31 383l6 655q-4 55 -5 126t-5 130q0 8 5 20.5t11 20.5q8 12 34 18.5t56.5 9.5t60.5 4t48 1q51 0 117.5 -11t105.5 -32q47 -27 82 -72t51 -86q6 -16 12.5 -42.5t12.5 -57.5t9 -62.5t3 -58.5v-40.5t-6 -53.5q-10 -35 -17 -78t-20.5 -86t-39 -77.5t-72.5 -53.5 q-6 -4 -17.5 -8t-17.5 -6q-33 -14 -59.5 -27.5t-55.5 -13.5q-4 0 -25.5 2t-47 5t-47 6t-25.5 3q-8 0 -15.5 3t-15.5 3t-16.5 -5t-18.5 -21t-14 -42t-4 -50.5t1 -44t1 -25.5v-190q0 -8 -3 -23.5t-5 -28.5q-4 -27 1 -63.5t11 -63.5q2 -8 1 -24.5t-1 -32.5q-16 -23 -43 -23 q-23 0 -35 14.5t-18.5 34t-8.5 38t-2 26.5zM172 854q0 -27 1 -54.5t3 -49t8 -29.5q12 -16 30 -23q16 -6 36 -8q13 -1 27 -1h13q20 1 38 1q84 0 136 26.5t80.5 72t38 104.5t9.5 125q0 76 -11.5 138.5t-43 106.5t-92 68.5t-158.5 24.5q-18 0 -45 -2t-54 -31q0 -10 -10 -20 q1 -37 1 -79v-44q-1 -68 -3 -129.5t-3 -104.5t-1 -47v-45z" />
<glyph unicode="Q" horiz-adv-x="919" d="M100 762v80q0 35 5.5 80t12.5 91t15 87t14 69q4 23 20.5 53.5t29.5 55.5q16 35 39.5 83t74.5 89q10 8 25.5 17.5t32.5 13.5q16 6 37.5 13t42 13t36 9.5t21.5 3.5q8 0 31.5 -8.5t37.5 -12.5q70 -23 119 -74t80 -112.5t44 -124t16 -107.5l10 -438q0 -8 -3 -48t-7 -67 q-6 -53 -14.5 -116.5t-24.5 -124.5q-2 -12 -11.5 -33t-20.5 -43.5t-19.5 -45t-8.5 -36.5q0 -33 18.5 -58.5t41 -47t41 -42t18.5 -40.5q0 -31 -16.5 -38t-30.5 -7q-25 0 -40 20.5t-28.5 44t-26 44t-30.5 20.5q-10 0 -32.5 -16.5t-52.5 -35t-66.5 -35t-73.5 -16.5 q-45 0 -96.5 24.5t-96.5 64.5t-79.5 91.5t-47.5 102.5q-6 29 -12 61.5t-10 71.5q-4 29 -4 57.5t-5 55.5q-2 16 0.5 40.5t-0.5 47.5q-2 45 -3 80.5t-2 70.5t-1 72zM192 757q-1 -9 -1 -18q0 -29 4 -51q0 -8 1 -25.5t2 -38t1 -37v-20.5l10 -161v-33v-11q0 -62 21 -124 q24 -66 89 -136q41 -43 66 -55t61 -12q10 0 36 4t52.5 15.5t47 30.5t20.5 50q0 14 -11 31.5t-24.5 37t-25 39t-11.5 38.5q0 14 14.5 27.5t28.5 13.5t25.5 -9.5t21 -21.5t19.5 -24.5t23 -16.5q18 18 30.5 46t21.5 58.5t15 60t12 52.5l11 313v75.5t-4.5 125.5t-17.5 144.5 t-40.5 138t-71 103.5t-110.5 40q-16 0 -37.5 -4t-44.5 -11.5t-40 -14.5t-24 -13q-59 -61 -92.5 -127t-51 -136.5t-21.5 -144t-4 -149.5q0 -10 -1 -50z" />
<glyph unicode="R" horiz-adv-x="780" d="M76 430v997q0 33 25.5 50.5t58.5 23.5t65.5 6h44.5q33 0 90.5 -2t116 -15t104.5 -41t58 -77q4 -10 8 -22.5t8 -22.5q10 -27 17.5 -58.5t12.5 -65.5t7 -66.5t2 -59.5q0 -33 -2 -56.5t-6 -47t-14 -54t-25 -75.5q-6 -14 -15 -29.5t-18.5 -31t-15.5 -27t-6 -17.5 q0 -4 13 -35.5t30.5 -75.5t35 -91.5t27.5 -79.5q14 -49 16 -101q1 -29 2 -55q0 -22 -1 -43q-2 -47 -3 -88v-12q0 -34 5 -60q4 -16 21.5 -43t17.5 -43t-12.5 -28.5t-22.5 -12.5q-16 0 -33.5 13.5t-32 32t-24.5 38t-13 31.5q-2 12 1.5 32.5t3.5 31.5v157q0 43 1 71t-5.5 56.5 t-21.5 65.5t-48 98q-4 8 -11.5 15.5t-15.5 13.5q-14 8 -38.5 16t-52.5 13.5t-53.5 8.5t-43.5 3t-46 -4.5t-54.5 -11.5t-48 -17t-27.5 -21q-8 -16 -7 -39.5t1 -33.5q0 -8 5 -43t9 -62q2 -14 -1 -33.5t-7 -40.5q-2 -18 4 -41.5t6 -33.5v-144q0 -4 4 -18t8 -29.5t8.5 -30 t4.5 -18.5q0 -23 -11.5 -39t-34.5 -16q-27 0 -40 24.5t-18 55t-5 59.5v39v45q0 31 2 73t2 81q0 14 -6 32.5t-6 28.5zM152 1137l6 -332q-2 -35 16.5 -47.5t40.5 -12.5q6 0 29.5 2.5t56.5 5.5t66.5 7t58.5 6q16 4 37.5 10t30.5 17q33 35 53 75.5t32.5 82.5t17.5 80t5 67 q0 39 -7 86t-22.5 89t-42 74.5t-63.5 45.5q-18 6 -43 10t-48.5 5t-41 2t-21.5 1h-32.5t-41 -3t-37 -10t-18.5 -20q-8 -31 -14 -69.5t-10 -75.5t-6 -64.5t-2 -31.5z" />
<glyph unicode="S" horiz-adv-x="686" d="M55 350q0 31 11.5 39t29.5 8q8 0 20.5 -3t18.5 -19q12 -31 21.5 -77t23.5 -87q6 -25 21.5 -48.5t35 -42t41 -29.5t41.5 -11q14 0 40 13t52.5 31.5t50 38t34.5 34.5q8 12 15 38.5t11 57.5t7 59.5t3 44.5q0 49 -14 103.5t-45 101.5t-81 85t-120 54q-10 4 -25.5 12.5 t-31.5 18.5q-12 8 -25.5 22.5t-25.5 31t-22.5 32.5t-16.5 27q-35 59 -47 121.5t-12 115.5q0 8 7 36t7 46q0 29 7 66t23.5 73.5t44 69.5t70.5 55q25 12 42.5 21.5t32.5 15.5t31.5 9.5t41.5 3.5q47 0 86 -21.5t67.5 -58.5t48 -84t29.5 -99q4 -20 14.5 -53t10.5 -43 q0 -18 -11.5 -31.5t-31.5 -13.5q-18 0 -29.5 13.5t-18 30t-9.5 33.5t-5 28q-4 16 -9 36.5t-11 38.5q-16 53 -56 95.5t-86 42.5q-16 0 -40.5 -11.5t-50 -29t-48 -37t-33.5 -35.5q-6 -8 -13 -32.5t-14 -56.5t-11.5 -63.5t-4.5 -52.5q0 -53 17.5 -113.5t56.5 -107.5 q6 -10 23.5 -19.5t25.5 -13.5q47 -25 94.5 -43t90.5 -49q20 -14 42.5 -50t41.5 -61q45 -68 62 -139.5t17 -132.5q0 -10 -6 -27.5t-8 -33.5q-2 -55 -15.5 -116t-53.5 -108q-16 -18 -44 -36.5t-60 -35t-63.5 -26.5t-56.5 -10q-47 0 -85 21.5t-67.5 56t-49 81t-29.5 95.5 q-4 23 -14.5 58.5t-10.5 45.5z" />
<glyph unicode="T" horiz-adv-x="722" d="M72 1409q0 20 4 29.5t28 13.5q31 6 75 10t85 6t72 2h35t20.5 -3t37 -6t37.5 -5t23 -2q4 0 16.5 2t26 5t26.5 6t17 3q16 0 45 -13t29 -46q0 -35 -16.5 -42t-36.5 -7q-4 0 -20.5 2t-36 5t-36 6t-20.5 3q-33 0 -48 -8t-22 -24.5t-8.5 -41t-5.5 -57.5q-6 -63 -9 -148t-5 -163 t-2 -134.5v-62.5q0 -4 1 -38.5t2 -81t2 -95.5t1 -82q0 -8 7 -26.5t7 -28.5v-242q0 -4 2.5 -20t5.5 -34.5t6 -35t3 -22.5q0 -23 -10.5 -38t-32.5 -15q-23 0 -36 21.5t-13 37.5v127q0 4 -3 23.5t-6.5 43t-7.5 48t-4 38.5v228v135q0 66 -3 140.5t-7 131.5v26q0 58 7 116 q6 50 6 101q0 22 -1 44q0 12 -5 48t-15 65q-6 23 -17.5 25.5t-23.5 2.5q-4 0 -21.5 -3t-36 -7t-36 -7t-21.5 -3q-29 0 -45 9t-16 38z" />
<glyph unicode="U" horiz-adv-x="755" d="M61 1401q0 29 12.5 49t47.5 20q10 0 23.5 -5t21.5 -17q8 -10 8 -25.5t-3 -32t-7 -32t-4 -25.5q-2 -27 3 -51.5t5 -34.5v-268q0 -8 4 -14.5t4 -14.5q2 -17 2 -35q0 -13 -1 -29q-3 -36 -3 -46q0 -4 1 -19.5t2 -35t2 -41t3 -35.5q2 -16 0.5 -41t1.5 -41q2 -16 8.5 -32.5 t6.5 -27.5v-166q0 -8 5 -28.5t9 -36.5q4 -12 10 -59.5t22.5 -97.5t46.5 -91t79 -41q55 0 91 43t58.5 98.5t30.5 105.5t8 62t9.5 37t9.5 35v408q0 6 2 17t3 24.5t3 25.5t2 17v147q0 4 -2 43t-5 83t-5.5 83t-2.5 43q0 12 -1 39.5t3.5 55.5t16.5 49.5t41 21.5q14 0 25.5 -16.5 t11.5 -26.5v-135q0 -10 5 -33t5 -33q0 -4 -2 -25.5t-3 -45t-3 -45t-2 -25.5v-142q0 -4 -2 -20t-4 -37.5t-5.5 -44t-3.5 -39.5q-3 -62 -3 -106v-20q1 -48 2 -78.5t3 -47t2 -28.5v-203q0 -16 -6 -39t-15 -45.5t-18.5 -42t-15.5 -31.5q-45 -113 -97 -172t-145 -59 q-74 0 -118.5 51t-73.5 139q-20 63 -27.5 130t-17.5 132q-20 125 -24.5 232.5t-14.5 208.5l-10 475q-4 20 -9.5 49t-5.5 39z" />
<glyph unicode="V" horiz-adv-x="864" d="M66 1411q0 16 13 33.5t36 17.5q8 0 20 -7t17 -13q10 -39 12 -82t10 -84q6 -29 22.5 -73t26.5 -85q8 -41 23.5 -104.5t32 -137t33 -151.5t28.5 -145q4 -20 4 -48t4 -49q2 -16 8 -41.5t11.5 -55.5t10.5 -58.5t7 -48.5q2 -18 11.5 -38t21.5 -38q10 6 18 17t13 22 q16 84 32.5 150.5t30.5 124.5t27.5 113.5t23.5 119.5q14 84 32.5 177t41.5 195q6 25 8 58.5t8 64.5q0 4 4.5 38t12.5 73t22.5 70.5t36.5 31.5q29 0 44 -22.5t15 -36.5q0 -4 -6 -23.5t-13 -47.5t-15.5 -57.5t-14.5 -51.5q-39 -174 -73.5 -345.5t-71.5 -345.5q-4 -23 -3 -55.5 t-9 -56.5q-23 -63 -38.5 -112.5t-25.5 -94.5t-16 -89t-13 -97q-4 -33 -22 -46.5t-43 -13.5q-10 0 -22.5 1t-22.5 22q-8 16 -10 44.5t-13 57.5q-20 51 -27 88t-14 70q-6 31 -18 79t-22.5 101t-18.5 108.5t-8 102.5q0 37 -16.5 95.5t-26.5 107.5q-8 41 -14.5 92t-14.5 92 q-6 31 -24.5 70t-28.5 73q-6 31 -16.5 71t-19.5 77t-15 64.5t-6 31.5z" />
<glyph unicode="W" horiz-adv-x="1251" d="M68 1386q0 41 38 41q29 0 44.5 -24.5t22.5 -56t9 -62.5t4 -43q10 -59 19.5 -121.5t17.5 -124.5q16 -152 40 -304t46 -306q4 -25 16.5 -68t36.5 -71q16 25 27.5 59.5t18 72.5t11.5 76t9 70q8 55 19.5 131t21.5 146q4 27 9 64.5t7 72.5q2 25 4.5 56.5t6.5 62.5q6 45 19 95 t22 103q4 23 -1.5 52.5t-0.5 52.5q8 27 19 42t44 15q18 0 31.5 -2t19.5 -31q6 -23 6 -48q0 -14 -2 -30q-5 -31 -5 -61q0 -10 1 -20q2 -51 15.5 -118t19.5 -122q8 -53 14.5 -109.5t22.5 -119.5q12 -51 20.5 -119t20.5 -137.5t28.5 -135t43.5 -114.5q25 4 29.5 25.5t10.5 39.5 q14 43 27.5 98.5t24.5 106.5q16 72 32.5 152t32.5 170q4 18 8.5 44.5t7.5 55.5t7 56.5t8 48.5q6 37 15.5 82t17.5 90t13 82.5t5 62.5q-2 23 17.5 36t35.5 13q27 0 42.5 -16t15.5 -39q0 -8 -13.5 -30.5t-21.5 -41.5q-6 -14 -8 -35.5t-6 -40.5q-33 -154 -60.5 -308t-56.5 -306 q-29 -154 -68 -294t-65 -286q-4 -14 -17.5 -25t-27.5 -11q-16 0 -32.5 15t-21.5 32q-14 51 -22 112.5t-35 126.5q-2 4 -2 18.5t-1 32l-2 35t-3 29.5q-14 68 -31.5 137.5t-19.5 138.5q0 20 -17.5 64.5t-25.5 83.5q-6 29 -8.5 67.5t-6.5 81.5q0 10 -6 24.5t-14 25.5 q-16 -6 -17 -25q-4 -39 -10 -79t-16 -79q-4 -29 -8 -75t-11 -84q-4 -29 -11 -59t-9 -64q-4 -55 -16.5 -118t-24.5 -125.5t-21.5 -123.5t-9.5 -115q0 -31 -23.5 -52t-49.5 -21q-16 0 -36 8t-24 35q-14 59 -27.5 123.5t-23.5 128.5q-6 33 -15.5 93t-15.5 111q-4 18 -5 51 t-5 56q-23 154 -47.5 310.5t-48.5 313.5q-2 14 -10.5 41t-16.5 54.5t-15 49t-7 27.5z" />
<glyph unicode="X" horiz-adv-x="780" d="M14 18q0 4 15.5 36t39 76t49 91t44.5 82q6 12 9 31.5t9 36.5q6 16 22.5 35.5t24.5 39.5q10 20 18.5 48t16.5 51q16 41 32.5 71.5t16.5 77.5q0 4 -7 34t-16 70t-18.5 83t-15.5 71q-4 16 -11 40t-16 46q-16 45 -40.5 104.5t-47 115t-40 95.5t-17.5 46q0 23 17.5 35t35.5 12 q8 0 20.5 -4t16.5 -12q37 -96 75 -191.5t62 -194.5q6 -20 7 -45.5t5.5 -52t13.5 -54.5t32 -50q12 2 24 17t23.5 39t23 50.5t21.5 50.5q8 16 17 41t20.5 53.5t22.5 59.5t22 57q8 16 16 47t14 54q2 6 7.5 28.5t16.5 46t25.5 42t34.5 18.5q18 0 31.5 -12.5t13.5 -30.5 q0 -8 -16 -55.5t-37.5 -105.5t-43 -113.5t-32.5 -79.5q-12 -29 -37.5 -64t-41.5 -70q-10 -18 -19.5 -54t-19.5 -58q-16 -47 -33 -79t-17 -73q0 -29 12.5 -61.5t26.5 -87.5q10 -33 13.5 -68t11.5 -69q10 -41 28.5 -100.5t43.5 -151.5q8 -31 19 -53.5t20.5 -41t14.5 -34 t1 -31.5q-8 -6 -20.5 -14.5t-22.5 -8.5q-41 0 -53.5 27t-18.5 74q-2 12 -10 30.5t-12 34.5q-4 12 -1 31.5t-3 40.5q-16 72 -35 142.5t-41 140.5q-4 10 -10.5 21t-18.5 22q-6 2 -13 -4.5t-15.5 -16.5t-14.5 -20.5t-8 -18.5q-12 -43 -34.5 -88t-48.5 -91t-48.5 -92t-32.5 -87 q-4 -12 -5 -31.5t-6 -38t-17.5 -32t-34.5 -13.5q-31 0 -43.5 21.5t-12.5 35.5z" />
<glyph unicode="Y" horiz-adv-x="813" d="M79 1424q-1 10 -1 19q0 12 2 23q16 16 35 17q16 0 34.5 -16.5t24.5 -36.5q10 -31 16.5 -64t22.5 -74q16 -43 34.5 -78.5t35.5 -74.5q27 -66 50 -131.5t50 -130.5q4 -10 15.5 -22.5t21.5 -16.5q4 0 8 5t8 9q25 49 52.5 118.5t57 148.5t57.5 159t50 147q4 10 19.5 20.5 t25.5 10.5q18 0 32.5 -18.5t14.5 -24.5q0 -8 -17 -35.5t-23 -46.5q-4 -10 -4.5 -25.5t-4.5 -25.5q-6 -14 -13 -35.5t-16.5 -45t-17.5 -47.5l-14 -42q-4 -14 -17.5 -33.5t-19.5 -38.5q-12 -29 -28.5 -71.5t-33 -92t-29.5 -100.5t-15 -92q0 -16 -12.5 -31.5t-26.5 -32.5 q-12 -16 -13.5 -47.5t-1.5 -48.5l4 -321q2 -16 6.5 -38t9.5 -43.5t8 -39t3 -21.5q0 -27 -13.5 -44t-41.5 -17q-8 0 -19.5 6t-21.5 14q-14 12 -13.5 42t2.5 42q0 14 5.5 40t3.5 42q-2 10 -6.5 25.5t-4.5 26.5v198q0 82 -3 146.5t-15 130t-39 142.5t-74 185q-12 27 -21 65 t-24 68q-23 53 -49 109.5t-49 112.5q-4 10 -7 31z" />
<glyph unicode="Z" horiz-adv-x="677" d="M33 43q0 6 14 50t36.5 110.5t50.5 146.5t56.5 158t53 145.5t39.5 106.5q4 14 6 37.5t12 46.5q14 41 30.5 87t35.5 89q45 106 76.5 182t45.5 162q-8 8 -14 13t-16 5h-156q-4 0 -24.5 1t-47 3.5t-56.5 4.5t-52 4q-16 0 -24.5 15t-8.5 26q0 18 10.5 27.5t22.5 12.5t24.5 3 h16.5t32.5 -4.5t61.5 -9.5t61.5 -9t32.5 -4q78 0 122 18.5t69 18.5q23 0 38 -13.5t24 -29.5t13.5 -33.5t4.5 -23.5q0 -33 -16.5 -49.5t-39.5 -55.5q-12 -23 -17 -47.5t-24 -52.5q-10 -18 -24.5 -40t-22.5 -40q-27 -63 -52.5 -142t-51.5 -149q-29 -70 -50.5 -140.5 t-37.5 -131.5q-6 -29 -23.5 -59.5t-34.5 -69.5q-6 -14 -7 -39t-11 -47q-23 -52 -45 -110q-21 -54 -21 -101v-9q8 -14 23 -16q31 -6 72 -10t77.5 -7t64.5 -4t32 -1t20.5 3t34.5 7t36.5 7t26.5 3q23 0 46.5 -16.5t23.5 -40.5q0 -16 -10 -25.5t-22.5 -14.5t-26 -6t-19.5 -1 q-10 0 -46 9t-58 13q-12 2 -31.5 2h-39h-35h-19.5h-19.5h-34t-39 -1t-34.5 -1q-18 -2 -45 -8t-37 -6q-53 0 -53 51z" />
<glyph unicode="_" horiz-adv-x="1507" d="M37 -37q18 14 31.5 18.5t25.5 3.5t24.5 -5.5t26.5 -4.5h156q8 0 28.5 6.5t37.5 6.5q16 0 37.5 -6.5t37.5 -6.5q33 0 69 5.5t71 7.5q14 2 32.5 -3t28.5 -5h242q8 0 37.5 -3.5t58.5 -1.5q23 2 46.5 7.5t45.5 3.5q16 -2 41 -6.5t35 -4.5h129q4 0 22.5 4.5t40 8.5t41 8 t23.5 4q23 0 39 -16.5t16 -36.5t-11 -31.5t-26.5 -18t-30 -8.5t-20.5 -2q-63 0 -127.5 10.5t-140.5 6.5q-74 -2 -167 -1t-185.5 3t-175 3t-134.5 -1l-282 -21q-10 0 -45 4.5t-58 12.5l-20 20v39z" />
<glyph unicode="a" horiz-adv-x="653" d="M82 254q0 27 6 76t27 114q20 66 61 100t89 52t96.5 32.5t84.5 39.5q6 4 13.5 11t9.5 15q2 12 4 22.5t2 20.5q0 20 -2 70.5t-12 103t-30.5 91t-57.5 38.5q-27 0 -51.5 -15t-44 -38.5t-34 -49.5t-18.5 -44q-5 -25 -5 -55v-10v-9q0 -32 -7 -63q-6 -23 -21.5 -28t-25.5 -5 q-20 0 -31.5 11t-17.5 26.5t-8.5 31t-2.5 21.5q0 55 17.5 112.5t52.5 103.5t88 75t127 29q51 0 83 -33t49.5 -77t23.5 -89t6 -70v-145q0 -4 5 -19.5t12.5 -34t12.5 -34t5 -19.5q0 -10 -10.5 -54t-14.5 -79q-2 -20 -4 -64t-9 -99.5t-22.5 -114t-44 -106.5t-73.5 -78.5 t-113 -30.5t-110 24.5t-65.5 63.5t-31.5 86t-8 94zM174 293q0 -18 4 -52t17.5 -67t37 -57.5t60.5 -24.5q59 0 93 47t50.5 110.5t20.5 125t4 92.5q0 10 -3 29.5t-3 35.5q-25 6 -45 7q-49 0 -92.5 -21.5t-75 -56.5t-50 -79t-18.5 -89z" />
<glyph unicode="b" horiz-adv-x="698" d="M77 280q0 13 -1 25q0 11 1 23q1 24 1 51l4 285l41 481v168q0 4 -2 17t-5 28.5t-5 29t-2 19.5q0 4 3 16.5t9 24.5t16 22.5t25 10.5q37 0 50 -27t13 -53l-30 -322q0 -10 3 -44t11 -62q20 10 43.5 32.5t46.5 36.5q31 23 60.5 28t60.5 5q10 0 26.5 -1t32.5 -5 q31 -10 56.5 -37.5t45 -61.5t30 -68t10.5 -54v-152q0 -78 -3.5 -133t-11.5 -110.5t-22.5 -118t-36.5 -152.5q-6 -25 -25.5 -49t-45 -47t-52.5 -40t-47 -26q-23 -10 -37 -20t-37 -10q-29 0 -66.5 13t-70.5 30q-8 4 -20.5 15t-16.5 20q-10 18 -23.5 39.5t-17.5 44.5 q-6 41 -8 71.5t-3 56.5zM169 340v-10q0 -16 2 -34q3 -22 14.5 -51.5t35.5 -78.5q31 -63 78 -64q49 0 86 28t63.5 71t42 94t25.5 96q2 16 1 35.5t1 32.5q2 37 6 86t7.5 95t5.5 79t2 37q0 12 -3.5 49t-15.5 76t-34.5 68.5t-59.5 29.5q-33 0 -56.5 -13.5t-45 -36t-44 -50 t-53.5 -54.5q-8 -8 -15 -22.5t-11 -24.5q-10 -25 -16.5 -50.5t-10.5 -47.5l-4 -285q0 -33 -1 -55z" />
<glyph unicode="c" horiz-adv-x="706" d="M92 516q0 4 3 19.5t8.5 35t10.5 41t9 35.5q4 16 1 40t1 46q10 41 29.5 93.5t29.5 86.5q12 49 34 81t50.5 52.5t61 28.5t63.5 8q131 0 203 -176q4 -12 11 -35.5t7 -33.5q0 -45 -41 -45q-27 0 -42 30.5t-31.5 66.5t-40 66.5t-64.5 30.5q-14 0 -32.5 -8t-35 -20.5 t-29.5 -26.5t-19 -27q-12 -27 -26.5 -63.5t-25.5 -73.5q-6 -23 -12 -52.5t-12 -58t-9.5 -50t-3.5 -25.5q0 -27 2.5 -48.5t4.5 -44t2 -48t-2 -62.5q-2 -16 -3 -48v-22q0 -22 1 -45q2 -35 9 -70.5t23 -62.5q18 -31 39 -46t56 -15q20 0 45.5 8t50 25.5t45 43t33.5 60.5 q6 14 9 35.5t8 42t15.5 34t28.5 13.5q8 0 18.5 -7.5t18.5 -15.5q2 -20 -5 -48t-7 -50q0 -55 -28 -101.5t-69 -79t-88 -50t-86 -17.5q-16 0 -38.5 7t-46 19.5t-44 31t-30.5 40.5q-12 25 -19.5 61t-11.5 76t-6 78.5t-4 71.5q0 18 -3.5 44t-6.5 52.5t-6 46t-3 25.5z" />
<glyph unicode="d" horiz-adv-x="690" d="M88 530q0 74 2 130.5t11.5 110.5t26.5 115.5t48 143.5q6 14 25.5 27.5t44 23t49 14.5t41.5 5q12 0 33.5 -3t43 -8.5t41 -13.5t31.5 -16q14 4 17.5 26.5t1.5 36.5q-2 25 4 52.5t8 56.5v21q0 32 -4 66q-3 20 -3 39q0 25 5 48q4 23 19.5 28t29.5 5q39 0 45 -22t6 -40 q0 -4 -3 -22.5t-6 -43l-6 -49t-3 -42.5q-2 -29 -2 -63t-4 -64q0 -16 -4 -41t-6 -41q-2 -20 4 -52t4 -61q0 -18 -6.5 -40.5t-12.5 -43t-11 -37t-5 -22.5v-273q0 -8 -3 -23.5t-5 -27.5q-2 -14 -4 -33.5t4 -36.5q6 -18 6 -54t-6 -80t-20.5 -91t-39 -85t-59.5 -62.5t-80 -24.5 q-31 0 -62.5 7t-70.5 50q-20 20 -30.5 54.5t-24.5 62.5q-47 104 -58.5 205.5t-11.5 187.5zM174 497.5q0 -34.5 2 -70.5t7 -69.5t14 -60.5q0 -2 11 -37t29.5 -76t42 -74.5t52.5 -33.5q20 0 48 12t44 35q6 8 12 23.5t11.5 31t7.5 27.5t2 16v283q0 4 5 48t10 96t10 97.5t5 49.5 q0 31 -6 66.5t-24.5 65t-49 50t-79.5 20.5q-20 0 -40 -4t-30 -22q-35 -63 -51.5 -117.5t-24.5 -105t-8 -96.5v-91v-63.5z" />
<glyph unicode="e" horiz-adv-x="686" d="M76 567q0 33 6 85.5t15 104.5t19.5 95t16.5 57q18 37 41 74t49.5 65.5t59 47t71.5 18.5q49 0 85 -25.5t60.5 -64.5t41 -87t25.5 -94t12.5 -83t3.5 -55q0 -90 -36 -142.5t-130 -52.5l-160 10h-27.5t-31 -4t-25.5 -13t-10 -30q0 -8 4 -42t10 -60q2 -18 4 -64.5t15.5 -95.5 t42 -87t88.5 -38q41 0 80.5 41t60.5 96q8 20 11 43t8.5 42.5t14.5 31.5t27 12q29 0 34 -21.5t5 -37.5q0 -10 -6 -37t-8 -45q-6 -53 -31.5 -95t-60.5 -72t-77 -45t-79 -15q-33 0 -79 20.5t-62 52.5q-27 53 -44.5 120t-26.5 136.5t-13 136t-4 117.5zM172 680q0 -12 1 -23.5 t7 -21.5q45 -18 66.5 -20.5t48.5 -2.5q14 0 38.5 2t48.5 6.5t44 11.5t31 19q25 29 26.5 54.5t1.5 48.5q0 20 -7 60t-23.5 81t-43 71.5t-65.5 30.5q-16 0 -45 -6t-51 -37q-10 -14 -23.5 -51t-26 -80t-20.5 -84t-8 -59z" />
<glyph unicode="f" horiz-adv-x="546" d="M92 1049q0 31 17.5 37t39 10t39 16t17.5 57v148q0 31 9 64.5t28.5 62.5t51.5 47t77 18q6 0 21.5 -2t30.5 -7t26.5 -14.5t11.5 -23.5q0 -16 -12 -24q-20 -8 -45 -13.5t-48 -15.5q-8 -4 -16 -14.5t-12 -22.5q-6 -25 -13.5 -58.5t-13.5 -65t-10 -55.5t-4 -28q0 -37 13 -48 t33.5 -14t46.5 -5t50 -21v-33q-12 -14 -29.5 -18t-36 -6t-37 -5t-36.5 -18v-331q0 -4 -2 -30t-5 -56.5t-5.5 -56t-2.5 -29.5v-392q0 -8 7.5 -22t7.5 -25q0 -23 -15.5 -40t-37.5 -17q-16 0 -26.5 9t-19 22.5t-11.5 29t-3 25.5v403l17 340q0 4 2 23.5t3 44.5t-1 50.5t-11 41.5 q-6 12 -22 14.5t-32.5 4.5t-29 10t-12.5 33z" />
<glyph unicode="g" horiz-adv-x="690" d="M88 359v139v23.5v45v53t2 50.5q0 4 5 10t7 14q8 43 19.5 98.5t62.5 118.5q6 8 8.5 24.5t10.5 27.5q51 63 88 96t92 33q61 0 119 -33q10 -8 18 -24.5t19 -30.5q20 -29 28 -50.5t15 -44.5q2 -6 11 -27.5t11 -37.5q0 -18 1 -40t2 -42.5t2 -35.5t1 -19t-3 -34l-7 -70t-9 -84 t-11 -77l-5 -483q0 -8 -9 -34.5t-11 -45.5v-44t-3 -59.5t-11.5 -63t-24.5 -54.5q-14 -18 -37.5 -34.5t-50.5 -30t-53.5 -20.5t-44.5 -7q-78 0 -121 43t-66 123q-4 12 -9 29.5t-9 35t-7 31.5t-3 18q0 23 11 40.5t34 17.5q20 0 31.5 -16.5t16.5 -37t6 -41t3 -26.5 q10 -49 46 -82t77 -33q49 0 76.5 37t42 83t17.5 88t3 54q0 23 7.5 62t7.5 49q0 20 -11 37h-18q-8 0 -23.5 -12.5t-31.5 -22.5q-18 -10 -43 -13t-35 -3q-74 0 -138.5 54t-89.5 146q-16 59 -16 132zM170 457q0 -6 1 -26.5t4 -48.5t5 -56.5t6 -51.5q2 -23 15.5 -47t33 -46.5 t43 -37t46.5 -14.5q27 0 51 15.5t42.5 39t31 49t16.5 46.5q4 25 11 68.5t13.5 94t10.5 100.5t4 89q0 4 -2 31.5t-7.5 67.5t-13.5 84t-22.5 82t-35 62.5t-48.5 24.5q-23 0 -46.5 -21.5t-43 -49t-32.5 -54.5t-17 -35q-10 -16 -23.5 -33.5t-15.5 -27.5q-4 -35 -9.5 -85 t-9.5 -98.5t-6 -83t-2 -38.5z" />
<glyph unicode="h" horiz-adv-x="671" d="M70 70q0 10 5 33.5t5 33.5v383q0 10 5 25.5t5 25.5v134l16 215v501q0 23 17.5 38.5t36.5 15.5q23 0 31 -14.5t8 -34t-3 -39t-3 -27.5v-195v-16t1 -28.5t4 -32t9 -23.5q20 4 48 9t52.5 9t44 6.5t23.5 2.5q10 0 25.5 -4.5t29.5 -4.5q33 0 58.5 -24.5t43 -56t26.5 -65.5 t9 -52v-467q0 -53 2 -70.5t4 -37t1 -61.5t-7 -145q-2 -10 6.5 -35.5t8.5 -37.5q0 -18 -8.5 -29.5t-19.5 -19t-21.5 -10.5t-16.5 -3q-35 0 -46 21.5t-11 42.5q0 10 6 37.5t8 44.5q2 63 7 126.5t9 129.5l-10 450q-4 33 -7 63.5t-12 55.5t-28.5 39t-56.5 14q-14 0 -38 -6 t-49.5 -17.5t-48 -28.5t-30.5 -42t-3 -61q3 -20 3 -39q0 -16 -2 -33q-2 -12 -8 -31.5t-11 -36.5l-10 -266v-317q0 -8 1 -28.5t-2 -42t-14 -38t-36 -16.5q-18 0 -29.5 9t-17.5 22.5t-8 26.5t-2 22z" />
<glyph unicode="i" horiz-adv-x="274" d="M35 1317q0 51 31.5 88t85.5 37q31 0 47 -17.5t23 -41t9 -45t2 -29.5q0 -18 -3 -40t-13 -40.5t-27.5 -30.5t-46.5 -12q-31 0 -51 14t-32.5 33.5t-18.5 42t-6 41.5zM68 31v389l20 215l-4 375q4 20 24.5 31.5t28.5 11.5q20 0 31.5 -13.5t15.5 -30t5 -33t1 -22.5l-24 -657 q0 -4 3 -35t7 -67.5t7 -67.5t3 -35q0 -8 -7 -17t-7 -18q-4 -41 -14.5 -50t-32.5 -9q-16 0 -28.5 5t-28.5 28z" />
<glyph unicode="j" horiz-adv-x="296" d="M-84 -350q0 23 11.5 29t27.5 6q10 0 43 -10.5t43 -10.5q41 0 50 23.5t20 62.5l6 887v19.5t-1 36t-2 42t-1 39.5q-3 25 -3 58v17v11q0 37 -6 62t-12 53.5t-6 38.5q0 18 11.5 45.5t52.5 27.5q20 0 29 -14t12.5 -32.5t2.5 -35t-1 -20.5l-5 -1266q-12 -86 -48 -118.5 t-95 -32.5q-16 0 -38.5 5t-43 15.5t-34 25.5t-13.5 36zM55 1317q0 51 32 88t85 37q31 0 47.5 -17.5t23.5 -41t9 -45t2 -29.5q0 -18 -3 -40t-13.5 -40.5t-27.5 -30.5t-46 -12q-31 0 -51.5 14t-32.5 33.5t-18.5 42t-6.5 41.5z" />
<glyph unicode="k" horiz-adv-x="636" d="M61 16v346q0 6 1 20.5t2.5 35t3.5 41t4 39.5l-4 465q4 29 7 63.5t3 44.5v213q0 2 -3 23.5t-2 45t9 43t29 19.5q16 0 26 -8t16.5 -18.5t8.5 -21.5t2 -19q0 -6 -1 -31t-1 -54.5t-1 -54t-1 -28.5v-242l-17 -274v-41.5t15 -36.5q16 8 36.5 33.5t43 58.5t44 67.5t40.5 59.5 q14 20 36.5 59t48 79t52 69.5t51.5 29.5q10 0 22.5 -7t20.5 -13q2 -16 -2 -37.5t-10 -32.5q-8 -12 -28.5 -38.5t-46.5 -60.5t-53.5 -72t-51 -71.5t-39 -59t-15.5 -36.5q0 -12 8.5 -34.5t18.5 -46t19 -43t14 -27.5q12 -31 35.5 -81t50 -107.5t54.5 -116t50 -105.5q3 -5 3 -14 v-5q-1 -14 -1 -26q-8 -6 -21.5 -11t-23.5 -5q-8 0 -22.5 2t-24.5 20q-23 53 -50.5 121t-62.5 146q-6 16 -15 40.5t-20 47.5q-2 6 -8 26.5t-17 42t-24.5 39t-31.5 17.5q-12 0 -21.5 -15.5t-15.5 -36t-9.5 -38t-3.5 -21.5q-8 -20 -21 -44t-17 -46q-5 -27 -5 -61q0 -18 1 -36 q4 -56 6 -105v-23q0 -36 -4 -62q-6 -35 -33 -35q-8 0 -31 12.5t-23 32.5z" />
<glyph unicode="l" horiz-adv-x="278" d="M72 74q0 66 10 129q7 45 7 97q0 21 -1 42q-1 49 -1 107v60q1 93 3 185t3 174v52q0 48 -1 84l-20 284q0 8 4 44t12 57q4 4 10 11t11 11h38q14 -18 18.5 -32.5t3.5 -27t-5 -24.5t-4 -27v-153q0 -10 6 -30.5t6 -37.5q0 -16 -6 -37.5t-6 -37.5q0 -31 5 -68t7 -72 q2 -14 -3 -32.5t-5 -26.5v-242q0 -10 -3 -39.5t-1 -58.5q2 -20 7 -45t3 -47q-2 -16 -6 -41t-4 -35v-129q0 -4 4 -23.5t8 -41t8 -40t4 -22.5q0 -23 -16 -38t-37 -15q-20 0 -31.5 11t-17.5 25.5t-8 29t-2 20.5z" />
<glyph unicode="m" horiz-adv-x="964" d="M59 838q0 8 5.5 31.5t5.5 31.5v137q0 16 17 27.5t28 11.5q18 0 25 -8t12.5 -17.5t9.5 -17.5t14 -8q4 0 23.5 10.5t46 23.5t54.5 23.5t50 10.5q27 0 51.5 -12.5t44 -27t33 -26.5t17.5 -12q6 0 21 11t34.5 24.5t43 24.5t48.5 11q14 0 39 -5t50.5 -13t48 -17.5t30.5 -17.5 q20 -23 32.5 -61.5t20.5 -71.5q6 -25 12.5 -45t11.5 -41.5t8 -47.5t3 -62l-20 -408q0 -4 1 -22.5t2 -43l2 -49t1 -39.5q2 -23 8 -51.5t6 -38.5q0 -25 -8 -43t-37 -18q-31 0 -42 16.5t-14 38t0 43t3 33.5q-1 22 -1 49q0 26 1 58q2 62 5 120t5 100t2 48v229q0 8 -5 18.5 t-5 16.5q0 37 -7.5 74.5t-22.5 68.5t-43 50.5t-66 19.5q-41 0 -67 -23.5t-39 -55.5t-17 -62.5t-4 -45.5v-133q0 -10 -12.5 -42.5t-18.5 -55.5l14 -475v-21.5t-4 -27t-13 -22.5t-26 -9q-37 0 -49 53l6 754q-4 14 -8 42t-13.5 55.5t-27.5 48t-51 20.5q-49 0 -81 -32t-50.5 -73 t-24.5 -83t-6 -60v-164q0 -10 5 -33.5t5 -33.5q0 -4 -2 -38t-5 -74t-5 -74t-2 -38v-129q0 -8 4 -32.5t4 -52t-10 -49t-39 -21.5q-12 0 -29.5 11t-17.5 28v182l20 260q0 4 -2 24.5t-5 45t-5 45t-2 26.5v138q0 4 -4 17t-9 27.5t-9.5 26.5t-4.5 19z" />
<glyph unicode="n" horiz-adv-x="655" d="M53 29v372q0 4 4 18.5t8.5 33t9.5 38t7 33.5q6 35 7 57.5t-1 43t-5 41t-3 53.5q0 23 2 49.5t4 48.5q2 14 8 32.5t6 29.5v147q0 18 13.5 41t36.5 23q4 0 14 -5.5t21.5 -10.5t22.5 -10t15 -5t24.5 6t45 12t45 12.5t27.5 6.5q70 0 110.5 -35t63 -83t29.5 -101.5t7 -90.5 q0 -6 -1 -41.5t-1 -78.5t-1 -79t-1 -42v-232q0 -4 -2 -17t-4 -30.5l-4 -35t-2 -29.5q-2 -16 -1 -45t5 -56q6 -25 0 -53q-4 -20 -20.5 -23.5t-22.5 -3.5q-33 0 -42 23t-9 33t3 26.5t5 32.5q6 55 6 126v147v192q0 8 5.5 36t5.5 40q0 16 -1 69.5t-13.5 110.5t-40 102.5 t-81.5 45.5q-12 0 -30.5 -5.5t-39 -15.5t-36.5 -23.5t-23 -31.5q-37 -100 -55 -182t-18 -175v-149q0 -10 -3 -52t-6 -71q-6 -80 -7 -120t0 -63.5t3 -42t0 -57.5q0 -14 -12 -28.5t-29 -14.5q-23 0 -36 22.5t-13 33.5z" />
<glyph unicode="o" horiz-adv-x="698" d="M66 465q0 51 10 126t26.5 150.5t40 140t50.5 95.5q10 12 21 34.5t22 41.5q10 18 29.5 30.5t41 19.5t42 10t34.5 3q51 0 89 -31.5t63.5 -81t42 -107.5t24.5 -111.5t11 -94.5t1 -53t0 -32.5t5.5 -42t6.5 -40t3 -22.5t-2 -21.5t-5.5 -39t-6.5 -44t-5 -41.5 q-8 -84 -25.5 -154.5t-52 -123.5t-89 -83t-134.5 -30q-16 0 -34.5 3t-38 12.5t-41 28t-41.5 50.5q-10 18 -17.5 49t-15.5 60q-6 18 -19.5 51t-19.5 62q-4 23 -7 52t-5 58t-3 50.5t-1 25.5zM168 451q0 -10 2 -43t8 -75t17.5 -88t30 -85t46 -63.5t66.5 -24.5q35 0 77 24.5 t64 73.5q6 16 14.5 43t14.5 52.5t10 45t4 23.5v422q0 18 -10 59t-30.5 84t-50.5 76t-66 33q-37 0 -52.5 -22.5t-38.5 -59.5q-23 -35 -43 -71t-30 -64q-6 -14 -11.5 -40t-1.5 -42q4 -24 4 -49q0 -38 -9 -79q-15 -69 -15 -130z" />
<glyph unicode="p" horiz-adv-x="651" d="M59 -309v803q0 4 1 24.5t3.5 51t5.5 67.5t5 72q2 25 2 56.5t4 68t14 76.5t29 81q12 25 36.5 47.5t55.5 40t61.5 27.5t55.5 10q27 0 56.5 -13t55 -36t47 -50.5t31.5 -55.5q12 -31 23.5 -80.5t20.5 -105.5t15.5 -112.5t6.5 -99.5q0 -4 -2 -31.5t-4 -61.5t-4.5 -67.5 t-4.5 -48.5q-4 -23 1.5 -55.5t-5.5 -60.5q-12 -39 -27.5 -81t-39 -77t-57 -57.5t-83.5 -22.5q-4 0 -26.5 4t-51 10t-60 14.5t-54.5 14.5q-14 -6 -18.5 -16.5t-3 -20.5t5.5 -22.5t4 -22.5q0 -59 5 -119q2 -24 2 -47q0 -38 -5 -76q-4 -29 -20.5 -43t-37.5 -14q-10 0 -26.5 7 t-16.5 22zM137 451q0 -10 7.5 -39t7.5 -52q0 -16 -6.5 -35.5t-2.5 -31.5q2 -12 9.5 -22.5t7.5 -18.5q4 -37 24.5 -64.5t48 -46t58.5 -29t55 -10.5q43 0 74 40t47 93.5t21 107.5q3 24 3 43q0 24 -4 40l5 6l-3 6q0 18 3 40q3 14 3 27q0 8 -1 15q-2 10 -6.5 25.5t-2.5 23.5 q4 35 4 75t-2 69q0 6 -8 51t-26.5 97t-48 94t-72.5 42q-74 0 -109 -45t-48 -105.5t-14 -122.5t-5 -97q-4 -20 -7.5 -49t-5.5 -56.5t-4 -48t-2 -22.5z" />
<glyph unicode="q" horiz-adv-x="655" d="M61 549l9 8q-1 32 -1 63q0 56 4 109q7 84 19 150q25 137 81 199.5t153 62.5q35 0 55 -7.5t38.5 -20.5t39 -30.5t53.5 -35.5q23 -12 30 -47t17 -60q16 -31 18.5 -63.5t2.5 -67.5q0 -6 -3.5 -40t-7.5 -74t-7 -74.5t-3 -38.5v-310q0 -4 -3 -21.5t-7 -36.5t-7 -36.5t-3 -21.5 v-226q0 -6 1 -44t1 -83t1 -83.5t1 -43.5q0 -8 -2 -24.5t-7.5 -33.5t-15.5 -30.5t-26 -13.5t-25.5 9t-13.5 21.5t-6.5 25t-2.5 18.5q-1 27 -1 54q0 52 5 104q7 79 7 159q0 27 -17 49h-14q-10 0 -17.5 -4t-17.5 -8t-27.5 -8t-48.5 -4q-53 0 -94 22.5t-68.5 56t-45 75.5 t-25.5 83q-4 20 -3 47t-1 56q0 27 -3 62.5t-5 69.5t-4.5 58.5t-2.5 28.5zM143 614q0 -43 2 -110.5t10.5 -138t26 -132t45.5 -90.5q10 -10 23.5 -20t23.5 -14q14 -6 32 -6.5t28 -0.5t22 -2q3 -1 7 -1q6 0 10 3q35 20 54 54t22 51q8 57 15 144t12 168t8 140.5t3 63.5 q0 57 -4 106.5t-24 100.5q-16 41 -56.5 74.5t-85.5 33.5t-74.5 -26.5t-49 -67.5t-29.5 -91t-14.5 -97t-5.5 -85t-1 -57z" />
<glyph unicode="r" horiz-adv-x="477" d="M63 60.5v21.5l7 295q4 18 8 37.5t4 38.5v48.5t-1 54.5t-1 46.5v24.5t1 41t3 85t4 95t4 72q4 29 2 63.5t-6 63.5q-6 35 12.5 49t40.5 14q20 0 29.5 -17.5t13.5 -39t4 -41t2 -25.5q18 6 38 20.5t39.5 28t39 23.5t37.5 10q16 0 29.5 -13.5t13.5 -29.5q0 -10 -6 -24.5 t-19 -22.5q-16 -14 -41.5 -33.5t-51 -42t-47 -48.5t-29.5 -50q-6 -16 -5.5 -43t-3.5 -49q-4 -31 -16 -71t-12 -50v-371q0 -4 1 -26.5t1 -52t-1 -61.5t-3 -54q-2 -18 -21.5 -25.5t-21.5 -7.5q-18 0 -27.5 11t-15 25.5t-5.5 30z" />
<glyph unicode="s" horiz-adv-x="612" d="M53 250q0 12 2 35.5t8.5 48t20.5 42t39 17.5q18 0 41 -16q14 -16 6 -44t-12 -44q-2 -12 -2 -24q0 -24 8 -50q12 -39 29 -68q18 -31 47.5 -46t54.5 -15q41 0 65.5 30.5t37 69.5t16.5 76t4 49q0 78 -24.5 119t-61.5 63.5t-81 38t-81 44t-61.5 80t-24.5 147.5q0 10 6 44 t8 56q2 51 20.5 90t48.5 66.5t66.5 42t73.5 14.5q45 0 77 -12t38 -17q51 -41 82 -100t31 -106q0 -23 -9.5 -45.5t-38.5 -22.5t-42 32t-28.5 68.5t-38 68.5t-69.5 32q-43 0 -67.5 -22.5t-36.5 -53.5t-15.5 -63.5t-3.5 -53.5q0 -37 5.5 -68.5t21.5 -59t46 -48t79 -33.5 q20 -4 46 -21.5t42 -35.5q53 -51 78.5 -128t25.5 -140q0 -41 -12 -93.5t-38.5 -100.5t-68.5 -80.5t-102 -32.5q-59 0 -107 26.5t-81 66.5t-50.5 87t-17.5 90z" />
<glyph unicode="t" horiz-adv-x="514" d="M90 1032q0 27 11.5 38t26.5 16.5t33.5 9.5t33.5 18q4 16 3 33.5t-3 32.5q0 2 -1 40v15q0 31 3 67q4 46 17 83.5t42 37.5q25 0 35 -18.5t12 -43t-2 -49t-6 -36.5q-4 -28 -7 -62q-1 -11 -1 -23q0 -23 4 -46q2 -14 13 -20.5t26.5 -11.5t31 -11t25.5 -19v-43 q-16 -14 -38.5 -24t-47.5 -27q-2 -14 -7 -32.5t-5 -26.5v-268q0 -4 -2 -18.5t-5 -34t-6.5 -41t-5.5 -40.5q-2 -16 -3 -39.5l-2 -47t-1 -42v-22.5q0 -23 2 -66t9.5 -88t18.5 -83t30 -48q18 -10 41.5 -16t44 -12.5t35 -17t14.5 -28.5q0 -16 -11.5 -32.5t-31.5 -16.5 q-8 0 -33 6.5t-41 12.5q-12 4 -32.5 8t-39.5 10q-33 8 -51 46t-27.5 84t-12.5 91t-3 70q0 4 1 24.5t2 48t2 57.5t1 52q0 6 5.5 16.5t5.5 18.5v133q0 8 5 25.5t7 32.5q4 20 3 54t-1 42q0 4 -1 24.5t-2 47t-4 51t-5 39.5q-12 10 -30 13t-34 7t-28.5 14.5t-12.5 34.5z" />
<glyph unicode="u" horiz-adv-x="643" d="M70 512l16 522q0 16 22.5 33.5t38.5 17.5q29 0 42.5 -21.5t13.5 -37.5q0 -4 -4 -19.5t-9.5 -35t-10.5 -40t-7 -34.5l-4 -254q0 -27 -1 -57q0 -15 -0.5 -31.5t0.5 -36.5q1 -39 5 -87t16 -112q2 -10 13.5 -45.5t31 -73.5t47 -68t64.5 -30t62.5 34t41 85t23.5 113.5t11 119 t3 100.5v60q0 86 -3 137.5t-7 86t-7 61.5t-3 64q0 12 2 31.5t7 38t15.5 30.5t28.5 12t29.5 -13t19.5 -56l-6 -703q-4 -10 -3 -24.5t-3 -30.5q-6 -29 -20.5 -75t-32.5 -71q-31 -43 -77 -77.5t-87 -34.5q-45 0 -83 26.5t-67.5 63.5t-50 78t-31.5 69q-23 57 -29.5 136t-6.5 149 z" />
<glyph unicode="v" horiz-adv-x="673" d="M59 993q0 23 21.5 35t34.5 12q10 0 20 -3t15 -7q53 -141 80.5 -282.5t52.5 -251.5q4 -14 5 -53.5t7 -69.5q2 -6 8 -16.5t14 -16.5q4 -2 11.5 4t9.5 14q8 23 6 50.5t8 58.5q4 16 15.5 34.5t17.5 41.5q10 41 17.5 92t15.5 92q4 12 14 31.5t14 40.5q6 27 13.5 62.5 t17.5 66.5q4 16 8 41.5t15 40.5q8 10 21.5 13t23.5 3q39 0 45 -21.5t6 -35.5q0 -29 -18.5 -54.5t-30.5 -66.5q-23 -63 -43.5 -132t-38.5 -134q-8 -23 -8 -55.5t-6 -61.5q-10 -53 -22.5 -113.5t-22.5 -118.5q-4 -18 -14.5 -45.5t-14.5 -54.5q-4 -29 -4 -59.5t-8 -59.5 q-4 -16 -20.5 -19t-25.5 -3q-14 0 -30.5 5t-24.5 28q-8 24 -8 58v15v12q0 37 -10 72q-31 111 -40 220.5t-26 199.5q-10 43 -23.5 97.5t-23.5 97.5q-4 20 -16.5 52t-24.5 62.5t-22.5 53t-10.5 28.5z" />
<glyph unicode="w" horiz-adv-x="983" d="M78 1004q0 23 8 43t37 20q18 0 31 -16q8 -16 11 -38t7 -40q16 -57 25.5 -104.5t15.5 -96.5q2 -10 10 -30.5t13 -41.5q7 -33 7 -70v-10v-12q0 -36 5 -71q8 -41 20.5 -83t22.5 -89q16 35 30.5 67.5t20.5 69.5q8 45 17.5 108.5t18.5 132t18.5 135t21.5 115.5q4 20 24.5 42 t49.5 22q10 0 23 -2t22 -21q4 -6 7 -17t3 -20q4 -72 9 -148.5t15 -152.5q25 -180 66 -364q4 -10 13 -24.5t20 -24.5q33 66 49 134t33 177q16 100 35.5 226t29.5 245q2 14 20.5 25.5t32.5 11.5q20 0 30.5 -9.5t16 -22.5t6.5 -26.5t1 -19.5q0 -45 -18.5 -105.5t-35.5 -132.5 q-4 -10 -7 -24t-5 -27q-6 -39 -14 -102.5t-21 -116.5q-16 -80 -43.5 -172t-44.5 -182q-4 -16 -3 -46t-3 -58.5t-15.5 -50t-37.5 -21.5q-10 0 -25.5 2t-21.5 20q-16 45 -28.5 101.5t-22.5 109.5q-4 16 -13.5 39t-13.5 43q-8 45 -10 99.5t-9 99.5q-4 29 -14 61.5t-14 67.5 q-2 12 -2 29.5t-1 35t-4 33.5t-12 27q-20 -8 -22 -23q-12 -70 -25.5 -152.5t-27.5 -160.5q-4 -16 -10.5 -41t-13.5 -53.5t-14 -58t-12 -52.5q-6 -37 -9 -90t-13 -98q-8 -31 -22.5 -40.5t-28.5 -9.5q-10 0 -23.5 2.5t-23.5 30.5q-6 18 -11.5 43t-8.5 52.5t-6 53t-5 46.5 q-12 113 -21.5 226.5t-29.5 223.5q-6 43 -19.5 101.5t-27 112t-23.5 92t-10 45.5z" />
<glyph unicode="x" horiz-adv-x="620" d="M10 -6q0 10 6.5 26.5t15.5 33t16 30.5t11 20q35 66 63 133.5t56 137.5q6 16 8 40.5t11 41.5q6 14 16 33.5t21.5 41t19.5 44t8 40.5q0 23 -20.5 50.5t-30.5 56.5q-14 37 -23.5 79t-25.5 79q-10 25 -25.5 54.5t-31 56t-26.5 47t-11 24.5q0 16 17 33.5t34 17.5 q16 0 29.5 -14.5t22.5 -32.5t14 -33.5t5 -17.5q12 -29 30 -65t30 -64q8 -18 11 -35.5t8 -34t14.5 -33t27.5 -32.5q6 4 16.5 13t14.5 19q10 31 22.5 74t34.5 72q8 12 15.5 35.5t16.5 47t24.5 42t40.5 18.5q23 0 33 -12t10 -31q0 -10 -4.5 -23.5t-8.5 -23.5 q-8 -16 -25.5 -39.5t-27.5 -46.5q-12 -29 -22.5 -70t-26.5 -75q-16 -31 -26.5 -49.5t-18.5 -33t-11 -30.5t-3 -41q0 -10 9 -51t19 -70q16 -47 36 -106.5t38 -108.5q10 -25 27.5 -56.5t34 -61t28.5 -52t11 -26.5q0 -23 -15.5 -35.5t-32.5 -12.5q-25 0 -44 28t-33.5 61.5 t-23.5 63.5t-11 34q-23 61 -47.5 124.5t-51.5 125.5h-14q-23 -25 -28 -56.5t-17 -60.5q-23 -53 -57.5 -127t-63.5 -143q-8 -20 -11 -48t-18 -57q-4 -4 -18 -10t-23 -6q-27 0 -38 17.5t-11 29.5z" />
<glyph unicode="y" horiz-adv-x="661" d="M68 1040q0 18 16 30.5t33 12.5q8 0 19 -5t16 -11q14 -23 22 -53.5t12 -55.5q18 -80 47 -167q12 -41 35 -99.5t37 -111.5q10 -37 20.5 -88.5t41.5 -83.5l9 9t7 9q16 102 43 223t45 223q4 16 3 37t-1 39q0 16 2 38t7 40t16.5 30.5t29.5 12.5q23 0 39.5 -20t16.5 -43 q0 -4 -4.5 -15.5t-8.5 -24t-9 -24.5t-7 -20q-6 -20 -4 -48t-4 -55q-23 -90 -39 -164.5t-31.5 -145.5t-29 -142.5t-25.5 -155.5q-4 -18 0 -34.5t7 -31t3 -25.5t-8 -24q-18 -23 -41 -48t-27 -58q0 -2 -4 -26.5t-13 -60.5t-22.5 -77t-33 -77t-44 -59.5t-55.5 -23.5 q-25 0 -38 16.5t-13 28.5q0 16 8.5 27.5t20.5 22t25.5 20.5t21.5 26q23 41 39 91.5t28 93.5q6 23 12.5 53.5t12.5 60t9 52t3 28.5q0 4 -4 17.5t-9 30t-9 34t-6 29.5q-4 14 -4 34.5t-5 37.5q-12 51 -28.5 104t-32.5 107q-20 57 -46 135t-48.5 148.5t-37.5 121.5t-15 55z" />
<glyph unicode="z" horiz-adv-x="534" d="M57 61q0 4 5.5 15.5t12.5 26t14 28.5t11 27q16 53 41 118.5t41 122.5q6 20 8.5 45t10.5 48q6 16 17 30.5t15 30.5q6 16 9.5 40.5t9.5 41.5q12 35 27.5 71.5t25.5 75.5q6 25 9 56.5t10 62.5q4 18 21 46t9 54q-16 23 -48 24t-50 1q-4 0 -20.5 -2t-35 -3t-33.5 -3t-22 -2 q-20 0 -38.5 13t-18.5 36q0 8 3 22.5t20 18.5q31 8 74.5 13t84.5 8t72 5t35 1q33 0 61.5 -15.5t28.5 -62.5q0 -4 -7 -35t-17.5 -71t-20.5 -82t-19 -70q-4 -16 -16 -48t-26.5 -71t-31 -81t-30.5 -77q-6 -12 -8 -33.5t-6 -37.5q-4 -25 -14.5 -62t-20.5 -72q-8 -23 -18.5 -49 t-18.5 -54t-12 -53.5t0 -45.5q10 -16 30.5 -17.5t34.5 -1.5q10 0 42 2t42 2q12 0 27.5 -1t30 -5t23.5 -13t9 -26q0 -18 -12 -29.5t-29.5 -15.5t-34 -5t-24.5 -1t-41 3t-55 1q-23 -2 -52.5 -6t-39.5 -4q-14 0 -31 3t-31 10t-23.5 20.5t-9.5 31.5z" />
<glyph unicode="&#xad;" d="M66 729q0 23 20 34t47 15t53.5 4h38.5t28.5 1t31 -2t23.5 -12.5t9 -29.5t-24.5 -30.5t-56 -15.5t-64.5 -6t-47 -1q-23 0 -41 6t-18 37z" />
<glyph unicode="&#x2000;" horiz-adv-x="839" />
<glyph unicode="&#x2001;" horiz-adv-x="1679" />
<glyph unicode="&#x2002;" horiz-adv-x="839" />
<glyph unicode="&#x2003;" horiz-adv-x="1679" />
<glyph unicode="&#x2004;" horiz-adv-x="559" />
<glyph unicode="&#x2005;" horiz-adv-x="419" />
<glyph unicode="&#x2006;" horiz-adv-x="279" />
<glyph unicode="&#x2007;" horiz-adv-x="279" />
<glyph unicode="&#x2008;" horiz-adv-x="209" />
<glyph unicode="&#x2009;" horiz-adv-x="335" />
<glyph unicode="&#x200a;" horiz-adv-x="93" />
<glyph unicode="&#x2010;" d="M66 729q0 23 20 34t47 15t53.5 4h38.5t28.5 1t31 -2t23.5 -12.5t9 -29.5t-24.5 -30.5t-56 -15.5t-64.5 -6t-47 -1q-23 0 -41 6t-18 37z" />
<glyph unicode="&#x2011;" d="M66 729q0 23 20 34t47 15t53.5 4h38.5t28.5 1t31 -2t23.5 -12.5t9 -29.5t-24.5 -30.5t-56 -15.5t-64.5 -6t-47 -1q-23 0 -41 6t-18 37z" />
<glyph unicode="&#x2012;" d="M66 729q0 23 20 34t47 15t53.5 4h38.5t28.5 1t31 -2t23.5 -12.5t9 -29.5t-24.5 -30.5t-56 -15.5t-64.5 -6t-47 -1q-23 0 -41 6t-18 37z" />
<glyph unicode="&#x2013;" horiz-adv-x="1151" d="M66 729q0 23 81.5 34t191.5 15t218.5 4h157.5t116 1t126.5 -2t96 -12.5t36.5 -29.5t-100 -30.5t-228.5 -15.5t-263 -6t-191.5 -1q-94 0 -167.5 6t-73.5 37z" />
<glyph unicode="&#x2014;" horiz-adv-x="2175" d="M66 729q0 23 163 34t383.5 15t436.5 4h314t233 1t253 -2t191.5 -12.5t73.5 -29.5t-200 -30.5t-457 -15.5t-526 -6t-384 -1q-187 0 -334 6t-147 37z" />
<glyph unicode="&#x2019;" horiz-adv-x="303" d="M45 1094q0 20 12.5 30.5t27.5 20.5t28.5 23.5t17.5 39.5q4 41 -1 84t-1 84q0 12 8 19.5t17.5 12.5t18.5 6t11 1q18 0 27.5 -9t12.5 -22.5t2 -27t-1 -21.5v-19.5t-1 -35.5t-3 -43t-4 -39q-2 -23 -23.5 -63.5t-41.5 -65.5q-16 -18 -28.5 -20t-23.5 -2q-55 0 -55 47z" />
<glyph unicode="&#x202f;" horiz-adv-x="335" />
<glyph unicode="&#x205f;" horiz-adv-x="419" />
<glyph unicode="&#x25fc;" horiz-adv-x="1116" d="M0 0v1116h1116v-1116h-1116z" />
</font>
</defs>
</svg>
